<svg width="50" height="53" viewBox="0 0 50 53" fill="none" xmlns="http://www.w3.org/2000/svg">
<g opacity="0.7" clip-path="url(#clip0_6_178)">
<mask id="mask0_6_178" style="mask-type:luminance" maskUnits="userSpaceOnUse" x="7" y="0" width="37" height="37">
<path d="M43.5293 0.509766H7.25702V36.7741H43.5293V0.509766Z" fill="white"/>
<path d="M25.3932 1.5459C22.0112 1.5459 18.7051 2.54856 15.8931 4.4271C13.081 6.30563 10.8892 8.97566 9.59505 12.0995C8.30081 15.2234 7.96217 18.6609 8.62197 21.9772C9.28178 25.2935 10.9104 28.3397 13.3018 30.7307C15.6933 33.1215 18.7401 34.7498 22.0572 35.4094C25.3742 36.0691 28.8124 35.7306 31.937 34.4366C35.0616 33.1427 37.7322 30.9514 39.6111 28.1399C41.4901 25.3285 42.493 22.0232 42.493 18.6419C42.493 14.1077 40.6914 9.75933 37.4846 6.55321C34.2777 3.34708 29.9284 1.5459 25.3932 1.5459ZM41.3917 18.0995H36.8633C36.8224 15.5179 36.3604 12.9602 35.4953 10.5274H39.1961C40.5527 12.827 41.3078 15.4312 41.3917 18.0995ZM25.3932 34.6542C25.0879 34.6542 24.6807 34.3306 24.2735 33.7679C23.7372 33.0148 23.2251 31.8567 22.7926 30.4209C22.5534 29.6281 22.3417 28.7672 22.1595 27.8514H28.6198C28.4365 28.7672 28.2258 29.6281 27.9867 30.4209C27.1114 33.3293 26.0263 34.6542 25.3891 34.6542H25.3932ZM21.959 26.7666C21.5554 24.2622 21.346 21.7302 21.333 19.1934H29.4442C29.4311 21.7302 29.2219 24.2622 28.8182 26.7666H21.959ZM21.333 18.1035C21.3461 15.5672 21.5554 13.0356 21.959 10.5315H28.8182C29.2218 13.0356 29.4311 15.5672 29.4442 18.1035H21.333ZM22.1585 9.44161C22.3407 8.52576 22.5523 7.66484 22.7915 6.87212C23.6669 3.96376 24.751 2.63984 25.3881 2.63984C25.6934 2.63984 26.1006 2.96242 26.5078 3.52517C27.0441 4.27922 27.5562 5.43626 27.9887 6.87212C28.2279 7.66484 28.4386 8.52576 28.6218 9.44161H22.1585ZM27.435 2.95428C29.3608 3.55468 31.1471 4.99767 32.6015 7.16418C33.0854 7.88803 33.5108 8.64924 33.8739 9.44059H29.7272C29.1775 6.59126 28.3795 4.31484 27.435 2.95428ZM21.049 9.44059H16.9024C17.2661 8.64964 17.6915 7.88849 18.1746 7.16418C19.6291 4.99767 21.4165 3.55468 23.3422 2.95428C22.3977 4.31484 21.5997 6.58821 21.049 9.44059ZM20.8567 10.5305C20.4633 13.0356 20.2591 15.5668 20.2459 18.1026H15.0041C15.0621 15.3977 15.5587 12.8109 16.4413 10.5305H20.8567ZM20.2459 19.1924C20.2596 21.7285 20.4638 24.2601 20.8567 26.7655H16.4413C15.5587 24.4831 15.0621 21.8973 15.0041 19.1924H20.2459ZM21.0521 27.8544C21.6017 30.7037 22.4007 32.9802 23.3453 34.3407C21.4195 33.7413 19.6322 32.2974 18.1777 30.1309C17.6941 29.4068 17.2687 28.6456 16.9054 27.8544H21.0521ZM29.7302 27.8544H33.877C33.5131 28.644 33.0866 29.4032 32.6015 30.1247C31.1471 32.2943 29.3628 33.7373 27.435 34.3377C28.3795 32.9771 29.1775 30.7037 29.7272 27.8514L29.7302 27.8544ZM29.9206 26.7625C30.313 24.257 30.5171 21.7254 30.5313 19.1894H35.7752C35.7162 21.8942 35.2205 24.481 34.338 26.7625H29.9206ZM30.5313 18.0995C30.5171 15.5638 30.313 13.0327 29.9206 10.5274H34.336C35.2184 12.8099 35.7141 15.3947 35.7732 18.0995H30.5313ZM38.0867 8.89312C38.2252 9.07222 38.3585 9.25335 38.4939 9.43754H35.0628C34.0083 6.98406 32.5445 4.96002 30.8142 3.57503C33.0335 4.37496 35.0473 5.65748 36.7106 7.33005C37.2038 7.82246 37.6644 8.34627 38.0898 8.8982L38.0867 8.89312ZM12.6874 8.8982C13.1127 8.34652 13.5731 7.82273 14.0656 7.33005C15.7291 5.66 17.7421 4.37931 19.9599 3.58012C18.2296 4.96409 16.7669 6.98915 15.7124 9.44263H12.2854C12.4143 9.25878 12.5483 9.07731 12.6874 8.8982ZM11.581 10.5274H15.2809C14.4167 12.9604 13.955 15.518 13.9139 18.0995H9.38454C9.46879 15.4311 10.2242 12.8269 11.581 10.5274ZM9.38454 19.1894H13.9139C13.9546 21.7727 14.4163 24.332 15.2809 26.7666H11.581C10.2242 24.4668 9.46879 21.8622 9.38454 19.1934V19.1894ZM12.6874 28.3947C12.549 28.2167 12.4147 28.0346 12.2854 27.8504H15.7124C16.7669 30.3039 18.2307 32.3279 19.9599 33.7139C17.7425 32.9139 15.7296 31.6333 14.0656 29.9639C13.5731 29.471 13.1127 28.9468 12.6874 28.3947ZM38.0898 28.3947C37.6644 28.9471 37.2038 29.4712 36.7106 29.9639C35.0469 31.6338 33.0339 32.9144 30.8163 33.7139C32.5466 32.3289 34.0102 30.3039 35.0647 27.8504H38.4918C38.3616 28.0346 38.2282 28.2167 38.0847 28.3947H38.0898ZM39.1911 26.7666H35.4953C36.3603 24.3334 36.8224 21.7755 36.8633 19.1934H41.3917C41.3078 21.8622 40.5527 24.4667 39.1961 26.7666" fill="black"/>
</mask>
<g mask="url(#mask0_6_178)">
<path d="M36.8633 18.0995L36.3451 18.1077L36.3532 18.6176H36.8633V18.0995ZM35.4953 10.5274V10.0093H34.7612L35.0071 10.7009L35.4953 10.5274ZM39.1961 10.5274L39.6425 10.2642L39.4921 10.0093H39.1961V10.5274ZM24.2735 33.7678L23.8515 34.0683L23.8537 34.0714L24.2735 33.7678ZM22.1594 27.8514V27.3333H21.5281L21.6512 27.9524L22.1594 27.8514ZM28.6197 27.8514L29.1279 27.9529L29.2518 27.3333H28.6197V27.8514ZM21.959 26.7666L21.4474 26.849L21.5176 27.2846H21.959V26.7666ZM21.333 19.1934V18.6754H20.8122L20.8148 19.1961L21.333 19.1934ZM29.4442 19.1934L29.9623 19.1961L29.965 18.6754H29.4442V19.1934ZM28.8182 26.7666V27.2846H29.2596L29.3298 26.849L28.8182 26.7666ZM21.333 18.1035L20.8148 18.101L20.8121 18.6216H21.333V18.1035ZM21.959 10.5315V10.0134H21.5176L21.4474 10.4491L21.959 10.5315ZM28.8182 10.5315L29.3298 10.4491L29.2596 10.0134H28.8182V10.5315ZM29.4442 18.1035V18.6216H29.965L29.9623 18.101L29.4442 18.1035ZM22.1585 9.4416L21.6503 9.34055L21.5271 9.95966H22.1585V9.4416ZM26.5078 3.52517L26.93 3.2249L26.9276 3.22154L26.5078 3.52517ZM28.6218 9.4416V9.95966H29.2539L29.1299 9.34001L28.6218 9.4416ZM27.435 2.95427L27.5892 2.45971L26.1492 2.01074L27.0093 3.24967L27.435 2.95427ZM32.6015 7.16417L33.0324 6.87632L33.0318 6.87545L32.6015 7.16417ZM33.8738 9.44059V9.95865H34.6816L34.3449 9.22462L33.8738 9.44059ZM29.7272 9.44059L29.2183 9.53869L29.2994 9.95865H29.7272V9.44059ZM16.9023 9.44059L16.4315 9.22414L16.0937 9.95865H16.9023V9.44059ZM18.1746 7.16417L17.7444 6.87545L17.7435 6.87676L18.1746 7.16417ZM23.3422 2.95427L23.7679 3.24967L24.628 2.01074L23.1879 2.45971L23.3422 2.95427ZM20.8566 10.5305L21.3685 10.6108L21.4625 10.0124H20.8566V10.5305ZM20.2459 18.1026V18.6207H20.7614L20.7641 18.1052L20.2459 18.1026ZM15.0041 18.1026L14.486 18.0914L14.4746 18.6207H15.0041V18.1026ZM16.4413 10.5305V10.0124H16.0861L15.9579 10.3435L16.4413 10.5305ZM20.2459 19.1924L20.7641 19.1896L20.7613 18.6743H20.2459V19.1924ZM20.8566 26.7655V27.2836H21.4624L21.3686 26.6853L20.8566 26.7655ZM16.4413 26.7655L15.9579 26.9523L16.086 27.2836H16.4413V26.7655ZM15.0041 19.1924V18.6743H14.4746L14.486 19.2036L15.0041 19.1924ZM21.0521 27.8544L21.5608 27.7563L21.4799 27.3363H21.0521V27.8544ZM23.3452 34.3407L23.1912 34.8354L24.6304 35.2833L23.771 34.0453L23.3452 34.3407ZM18.1777 30.1309L17.7468 30.4185L17.7474 30.4195L18.1777 30.1309ZM16.9054 27.8544V27.3363H16.0972L16.4344 28.0706L16.9054 27.8544ZM29.7302 27.8544L29.3636 28.2206L29.5155 28.3724H29.7302V27.8544ZM33.8769 27.8544L34.3476 28.0711L34.6861 27.3363H33.8769V27.8544ZM27.435 34.3377L27.0093 34.0423L26.1496 35.2806L27.5891 34.8323L27.435 34.3377ZM29.7272 27.8514L30.0937 27.4852L29.4032 26.7941L29.2183 27.7534L29.7272 27.8514ZM29.9206 26.7625L29.4086 26.6823L29.3149 27.2806H29.9206V26.7625ZM30.5313 19.1894V18.6713H30.0159L30.0131 19.1865L30.5313 19.1894ZM35.7752 19.1894L36.2932 19.2007L36.3048 18.6713H35.7752V19.1894ZM34.338 26.7625V27.2806H34.6932L34.8213 26.9493L34.338 26.7625ZM30.5313 18.0995L30.0131 18.1024L30.0159 18.6176H30.5313V18.0995ZM29.9206 10.5274V10.0093H29.3149L29.4086 10.6076L29.9206 10.5274ZM34.3359 10.5274L34.8193 10.3406L34.6912 10.0093H34.3359V10.5274ZM35.7732 18.0995V18.6176H36.3027L36.2912 18.0882L35.7732 18.0995ZM38.0867 8.89311L38.4967 8.57634L37.6422 9.15937L38.0867 8.89311ZM38.4939 9.43753V9.9556H39.5176L38.9114 9.13078L38.4939 9.43753ZM35.0627 9.43753L34.5866 9.64206L34.7214 9.9556H35.0627V9.43753ZM30.8142 3.57503L30.99 3.08767L30.4904 3.97945L30.8142 3.57503ZM36.7105 7.33005L36.3432 7.69531L36.3444 7.69659L36.7105 7.33005ZM38.0898 8.8982L37.6793 9.2144L38.5343 8.63193L38.0898 8.8982ZM19.9599 3.58011L20.2837 3.98466L19.7842 3.09274L19.9599 3.58011ZM15.7124 9.44263V9.96069H16.0538L16.1885 9.64715L15.7124 9.44263ZM12.2854 9.44263L11.8611 9.14522L11.2893 9.96069H12.2854V9.44263ZM15.2809 10.5274L15.7692 10.7008L16.0148 10.0093H15.2809V10.5274ZM13.9139 18.0995V18.6176H14.4239L14.432 18.1078L13.9139 18.0995ZM9.38452 18.0995L8.8666 18.0831L8.84973 18.6176H9.38452V18.0995ZM9.38452 19.1894V18.6713H8.86635V19.1894H9.38452ZM13.9139 19.1894L14.432 19.1812L14.424 18.6713H13.9139V19.1894ZM15.2809 26.7666V27.2846H16.0147L15.7692 26.5932L15.2809 26.7666ZM11.581 26.7666L11.1347 27.0297L11.2851 27.2846H11.581V26.7666ZM9.38452 19.1934H8.86635V19.2016L8.8666 19.2098L9.38452 19.1934ZM12.2854 27.8503V27.3323H11.2887L11.8612 28.1479L12.2854 27.8503ZM15.7124 27.8503L16.1885 27.6458L16.0538 27.3323H15.7124V27.8503ZM19.9599 33.7139L19.784 34.2012L20.2841 33.3097L19.9599 33.7139ZM38.0898 28.3947L38.5003 28.7108L39.1429 27.8767H38.0898V28.3947ZM36.7105 29.9639L36.3443 29.5976L36.3435 29.5983L36.7105 29.9639ZM30.8163 33.7139L30.4924 33.3095L30.9921 34.2013L30.8163 33.7139ZM35.0647 27.8503V27.3323H34.7234L34.5886 27.6458L35.0647 27.8503ZM38.4918 27.8503L38.9149 28.1495L39.4929 27.3323H38.4918V27.8503ZM38.0846 28.3947L37.6812 28.0697L37.0018 28.9128H38.0846V28.3947ZM35.4953 26.7666L35.007 26.5931L34.7612 27.2846H35.4953V26.7666ZM36.8633 19.1934V18.6754H36.3532L36.3451 19.1853L36.8633 19.1934ZM41.3916 19.1934L41.9096 19.2097L41.9264 18.6754H41.3916V19.1934ZM25.3932 1.02783C21.9086 1.02783 18.5024 2.06088 15.6051 3.99634L16.1809 4.85785C18.9078 3.03623 22.1136 2.06395 25.3932 2.06395V1.02783ZM15.6051 3.99634C12.7079 5.9318 10.4497 8.68274 9.11631 11.9013L10.0738 12.2978C11.3287 9.26857 13.4541 6.67945 16.1809 4.85785L15.6051 3.99634ZM9.11631 11.9013C7.78284 15.1198 7.43395 18.6615 8.11374 22.0782L9.13017 21.8761C8.49037 18.6603 8.81874 15.327 10.0738 12.2978L9.11631 11.9013ZM8.11374 22.0782C8.79353 25.495 10.4715 28.6336 12.9354 31.0969L13.6682 30.3643C11.3493 28.0459 9.76998 25.0919 9.13017 21.8761L8.11374 22.0782ZM12.9354 31.0969C15.3993 33.5603 18.5385 35.2379 21.9561 35.9175L22.1583 34.9014C18.9418 34.2617 15.9871 32.6827 13.6682 30.3643L12.9354 31.0969ZM21.9561 35.9175C25.3736 36.5972 28.916 36.2483 32.1353 34.9151L31.7386 33.958C28.7088 35.2127 25.3748 35.541 22.1583 34.9014L21.9561 35.9175ZM32.1353 34.9151C35.3546 33.5821 38.1061 31.3244 40.042 28.4278L39.1803 27.8521C37.3583 30.5784 34.7686 32.7032 31.7386 33.958L32.1353 34.9151ZM40.042 28.4278C41.9779 25.5312 43.0111 22.1257 43.0111 18.6419H41.9748C41.9748 21.9207 41.0023 25.1259 39.1803 27.8521L40.042 28.4278ZM43.0111 18.6419C43.0111 13.9703 41.1549 9.49015 37.8509 6.18687L37.1181 6.91952C40.2278 10.0285 41.9748 14.2451 41.9748 18.6419H43.0111ZM37.8509 6.18687C34.547 2.8836 30.0658 1.02783 25.3932 1.02783V2.06395C29.7909 2.06395 34.0085 3.81056 37.1181 6.91952L37.8509 6.18687ZM41.3916 17.5814H36.8633V18.6176H41.3916V17.5814ZM37.3814 18.0913C37.3396 15.4534 36.8674 12.8398 35.9835 10.3539L35.0071 10.7009C35.8532 13.0806 36.3051 15.5825 36.3451 18.1077L37.3814 18.0913ZM35.4953 11.0455H39.1961V10.0093H35.4953V11.0455ZM38.7499 10.7906C40.0621 13.0151 40.7926 15.5345 40.8738 18.1158L41.9096 18.0832C41.823 15.3279 41.0432 12.6387 39.6425 10.2642L38.7499 10.7906ZM25.3932 34.1361C25.4122 34.1361 25.3478 34.1384 25.1934 34.016C25.051 33.9032 24.879 33.7207 24.6934 33.4642L23.8537 34.0714C24.0752 34.3776 24.3104 34.6384 24.5497 34.828C24.7771 35.0082 25.0688 35.1722 25.3932 35.1722V34.1361ZM24.6956 33.4673C24.206 32.78 23.7139 31.6827 23.2888 30.2715L22.2965 30.5703C22.7364 32.0307 23.2682 33.2496 23.8515 34.0683L24.6956 33.4673ZM23.2888 30.2715C23.0551 29.4967 22.8471 28.6521 22.6677 27.7503L21.6512 27.9524C21.8363 28.8824 22.0519 29.7595 22.2965 30.5703L23.2888 30.2715ZM22.1594 28.3694H28.6197V27.3333H22.1594V28.3694ZM28.1116 27.7497C27.9311 28.6523 27.7242 29.4969 27.4905 30.2712L28.4827 30.5705C28.7275 29.7594 28.9419 28.8821 29.1279 27.9529L28.1116 27.7497ZM27.4905 30.2712C27.0622 31.6943 26.5904 32.7023 26.1666 33.342C25.954 33.6628 25.7638 33.8756 25.6103 34.0026C25.4477 34.1371 25.3755 34.1361 25.3891 34.1361V35.1722C25.7214 35.1722 26.0237 35.0056 26.2711 34.8008C26.5277 34.5885 26.7827 34.2883 27.0306 33.9143C27.5273 33.1644 28.0357 32.0558 28.4827 30.5705L27.4905 30.2712ZM25.3891 35.1722H25.3932V34.1361H25.3891V35.1722ZM22.4706 26.6842C22.0711 24.2061 21.8641 21.7009 21.8511 19.1907L20.8148 19.1961C20.828 21.7596 21.0396 24.3182 21.4474 26.849L22.4706 26.6842ZM21.333 19.7115H29.4442V18.6754H21.333V19.7115ZM28.926 19.1907C28.9131 21.7009 28.706 24.2061 28.3067 26.6842L29.3298 26.849C29.7377 24.3182 29.9492 21.7596 29.9623 19.1961L28.926 19.1907ZM28.8182 26.2485H21.959V27.2846H28.8182V26.2485ZM21.8511 18.1062C21.8641 15.5965 22.0713 13.0916 22.4706 10.6139L21.4474 10.4491C21.0396 12.9796 20.828 15.5378 20.8148 18.101L21.8511 18.1062ZM21.959 11.0495H28.8182V10.0134H21.959V11.0495ZM28.3067 10.6139C28.706 13.0916 28.913 15.5965 28.926 18.1062L29.9623 18.101C29.9491 15.5378 29.7377 12.9796 29.3298 10.4491L28.3067 10.6139ZM29.4442 17.5855H21.333V18.6216H29.4442V17.5855ZM22.6667 9.54267C22.846 8.64091 23.0539 7.79641 23.2876 7.02174L22.2955 6.7225C22.0508 7.53327 21.8353 8.41059 21.6503 9.34055L22.6667 9.54267ZM23.2876 7.02174C23.7159 5.59867 24.1876 4.59086 24.6111 3.9514C24.8235 3.63083 25.0138 3.41812 25.167 3.29123C25.3294 3.15687 25.4017 3.15789 25.3881 3.15789V2.12177C25.0558 2.12177 24.7537 2.2883 24.5063 2.49305C24.2498 2.70528 23.9948 3.00533 23.7471 3.37929C23.2506 4.12887 22.7425 5.2372 22.2955 6.7225L23.2876 7.02174ZM25.3881 3.15789C25.3694 3.15789 25.4341 3.15584 25.5882 3.27772C25.7305 3.39031 25.9023 3.57236 26.0878 3.82879L26.9276 3.22154C26.7059 2.91521 26.4707 2.65461 26.2313 2.46522C26.0037 2.28511 25.7121 2.12177 25.3881 2.12177V3.15789ZM26.0855 3.82541C26.5752 4.514 27.0674 5.6105 27.4925 7.02153L28.4848 6.7227C28.0448 5.26202 27.5129 4.04443 26.93 3.2249L26.0855 3.82541ZM27.4925 7.02153C27.7261 7.79588 27.9332 8.64067 28.1137 9.5432L29.1299 9.34001C28.944 8.41083 28.7295 7.5338 28.4848 6.7227L27.4925 7.02153ZM28.6218 8.92354H22.1585V9.95966H28.6218V8.92354ZM27.2807 3.44885C29.0662 4.00552 30.7646 5.35754 32.1713 7.45289L33.0318 6.87545C31.5295 4.63778 29.6553 3.10383 27.5892 2.45971L27.2807 3.44885ZM32.1707 7.45202C32.6393 8.15302 33.0513 8.89019 33.4028 9.65656L34.3449 9.22462C33.9704 8.40828 33.5315 7.62303 33.0324 6.87632L32.1707 7.45202ZM33.8738 8.92253H29.7272V9.95865H33.8738V8.92253ZM30.2359 9.34249C29.6818 6.4695 28.867 4.1084 27.8606 2.65889L27.0093 3.24967C27.8921 4.52127 28.6733 6.713 29.2183 9.53869L30.2359 9.34249ZM21.049 8.92253H16.9023V9.95865H21.049V8.92253ZM17.3731 9.65703C17.7255 8.89074 18.1377 8.15332 18.6057 7.45158L17.7435 6.87676C17.2454 7.62365 16.8067 8.40854 16.4315 9.22414L17.3731 9.65703ZM18.6049 7.45289C20.0115 5.35764 21.7109 4.00555 23.4964 3.44885L23.1879 2.45971C21.1221 3.1038 19.2467 4.63767 17.7444 6.87545L18.6049 7.45289ZM22.9165 2.65889C21.9103 4.10832 21.0954 6.46627 20.5403 9.34241L21.5578 9.53877C22.1039 6.71012 22.8851 4.52136 23.7679 3.24967L22.9165 2.65889ZM20.3447 10.4501C19.9473 12.981 19.741 15.5381 19.7278 18.0999L20.7641 18.1052C20.7772 15.5955 20.9791 13.0903 21.3685 10.6108L20.3447 10.4501ZM20.2459 17.5846H15.0041V18.6207H20.2459V17.5846ZM15.5221 18.1137C15.5789 15.4638 16.0655 12.9371 16.9245 10.7174L15.9579 10.3435C15.0519 12.6848 14.5452 15.3316 14.486 18.0914L15.5221 18.1137ZM16.4413 11.0485H20.8566V10.0124H16.4413V11.0485ZM19.7278 19.1952C19.7416 21.7572 19.9478 24.3147 20.3447 26.8458L21.3686 26.6853C20.9797 24.2054 20.7777 21.6998 20.7641 19.1896L19.7278 19.1952ZM20.8566 26.2475H16.4413V27.2836H20.8566V26.2475ZM16.9245 26.5788C16.0655 24.3569 15.5789 21.8311 15.5221 19.1813L14.486 19.2036C14.5452 21.9634 15.052 24.6091 15.9579 26.9523L16.9245 26.5788ZM15.0041 19.7105H20.2459V18.6743H15.0041V19.7105ZM20.5433 27.9525C21.0975 30.8257 21.9133 33.1867 22.9196 34.6361L23.771 34.0453C22.8881 32.7737 22.1059 30.5818 21.5608 27.7563L20.5433 27.9525ZM23.4993 33.8461C21.714 33.2904 20.0147 31.9375 18.6079 29.8421L17.7474 30.4195C19.2497 32.6572 21.1251 34.1922 23.1912 34.8354L23.4993 33.8461ZM18.6086 29.8432C18.1403 29.1419 17.7282 28.4046 17.3763 27.6383L16.4344 28.0706C16.8093 28.8866 17.2481 29.6717 17.7468 30.4185L18.6086 29.8432ZM16.9054 28.3724H21.0521V27.3363H16.9054V28.3724ZM29.7302 28.3724H33.8769V27.3363H29.7302V28.3724ZM33.4062 27.6376C33.054 28.4021 32.6411 29.1372 32.1715 29.8358L33.0316 30.4137C33.5321 29.6693 33.9721 28.8858 34.3476 28.0711L33.4062 27.6376ZM32.1715 29.8358C30.7648 31.9341 29.0681 33.2865 27.2809 33.8431L27.5891 34.8323C29.6574 34.1881 31.5293 32.6544 33.0316 30.4137L32.1715 29.8358ZM27.8606 34.6331C28.8669 33.1836 29.6817 30.8257 30.2359 27.9494L29.2183 27.7534C28.6733 30.5819 27.8921 32.7706 27.0093 34.0423L27.8606 34.6331ZM29.3605 28.2176L29.3636 28.2206L30.0968 27.4883L30.0937 27.4852L29.3605 28.2176ZM30.4325 26.8426C30.8289 24.3115 31.0351 21.7542 31.0495 19.1923L30.0131 19.1865C29.999 21.6967 29.797 24.2024 29.4086 26.6823L30.4325 26.8426ZM30.5313 19.7075H35.7752V18.6713H30.5313V19.7075ZM35.2572 19.1781C35.1993 21.8282 34.7136 24.355 33.8547 26.5757L34.8213 26.9493C35.7272 24.6071 36.233 21.9603 36.2932 19.2007L35.2572 19.1781ZM34.338 26.2445H29.9206V27.2806H34.338V26.2445ZM31.0495 18.0966C31.0351 15.535 30.8288 12.9781 30.4325 10.4473L29.4086 10.6076C29.797 13.0873 29.999 15.5925 30.0131 18.1024L31.0495 18.0966ZM29.9206 11.0455H34.3359V10.0093H29.9206V11.0455ZM33.8526 10.7142C34.7116 12.936 35.1973 15.4608 35.2551 18.1108L36.2912 18.0882C36.231 15.3286 35.7253 12.6839 34.8193 10.3406L33.8526 10.7142ZM35.7732 17.5814H30.5313V18.6176H35.7732V17.5814ZM37.6767 9.20987C37.8107 9.3833 37.9405 9.55957 38.0762 9.74429L38.9114 9.13078C38.7764 8.94711 38.6396 8.76112 38.4967 8.57634L37.6767 9.20987ZM38.4939 8.91947H35.0627V9.9556H38.4939V8.91947ZM35.5387 9.23301C34.4578 6.7179 32.9475 4.6189 31.1381 3.17061L30.4904 3.97945C32.1416 5.30112 33.5586 7.25021 34.5866 9.64206L35.5387 9.23301ZM30.6385 4.06239C32.7856 4.8363 34.7339 6.07714 36.3432 7.69531L37.078 6.96478C35.3607 5.23784 33.2814 3.91361 30.99 3.08767L30.6385 4.06239ZM36.3444 7.69659C36.8216 8.17319 37.2676 8.68019 37.6793 9.2144L38.5002 8.58199C38.0612 8.01234 37.5857 7.47172 37.0768 6.9635L36.3444 7.69659ZM38.5343 8.63193L38.5312 8.62685L37.6422 9.15937L37.6452 9.16446L38.5343 8.63193ZM13.0978 9.21447C13.5096 8.68036 13.9553 8.17324 14.4321 7.69626L13.6991 6.96383C13.1909 7.47219 12.7159 8.01268 12.277 8.58192L13.0978 9.21447ZM14.4321 7.69626C16.0416 6.08046 17.9899 4.84072 20.1357 4.06748L19.7842 3.09274C17.4944 3.9179 15.4165 5.23954 13.6991 6.96383L14.4321 7.69626ZM19.6362 3.17558C17.8265 4.62303 16.3172 6.72322 15.2364 9.2381L16.1885 9.64715C17.2167 7.25507 18.6326 5.30513 20.2837 3.98466L19.6362 3.17558ZM15.7124 8.92457H12.2854V9.96069H15.7124V8.92457ZM12.7097 9.74003C12.8337 9.56315 12.9627 9.38845 13.0967 9.21593L12.2782 8.58046C12.1339 8.76615 11.9949 8.95441 11.8611 9.14522L12.7097 9.74003ZM11.581 11.0455H15.2809V10.0093H11.581V11.0455ZM14.7925 10.354C13.9096 12.8401 13.4378 15.4535 13.3959 18.0913L14.432 18.1078C14.4722 15.5826 14.9239 13.0807 15.7692 10.7008L14.7925 10.354ZM13.9139 17.5814H9.38452V18.6176H13.9139V17.5814ZM9.90244 18.1159C9.98394 15.5344 10.7147 13.0151 12.0274 10.7906L11.1347 10.2642C9.73365 12.6386 8.9536 15.3277 8.8666 18.0831L9.90244 18.1159ZM9.38452 19.7075H13.9139V18.6713H9.38452V19.7075ZM13.3959 19.1975C13.4373 21.8371 13.9091 24.4522 14.7925 26.9399L15.7692 26.5932C14.9234 24.2117 14.4718 21.7081 14.432 19.1812L13.3959 19.1975ZM15.2809 26.2485H11.581V27.2846H15.2809V26.2485ZM12.0274 26.5034C10.7147 24.2785 9.98394 21.7589 9.90244 19.1771L8.8666 19.2098C8.9536 21.9656 9.73364 24.6549 11.1347 27.0297L12.0274 26.5034ZM9.9027 19.1934V19.1894H8.86635V19.1934H9.9027ZM13.0966 28.0768C12.9635 27.9057 12.8342 27.7303 12.7096 27.5528L11.8612 28.1479C11.9951 28.3388 12.1345 28.5278 12.2783 28.7127L13.0966 28.0768ZM12.2854 28.3684H15.7124V27.3323H12.2854V28.3684ZM15.2364 28.0549C16.3173 30.5701 17.8276 32.6688 19.6358 34.1181L20.2841 33.3097C18.6336 31.9869 17.2166 30.0376 16.1885 27.6458L15.2364 28.0549ZM20.1358 33.2266C17.9903 32.4525 16.0427 31.2135 14.4326 29.5983L13.6986 30.3297C15.4166 32.0532 17.4947 33.3753 19.784 34.2012L20.1358 33.2266ZM14.4326 29.5983C13.9558 29.1209 13.5097 28.613 13.0979 28.0786L12.2769 28.711C12.7158 29.2805 13.1903 29.8209 13.6986 30.3297L14.4326 29.5983ZM37.6792 28.0787C37.2675 28.6132 36.8215 29.1205 36.3443 29.5976L37.0769 30.3304C37.5858 29.8218 38.0613 29.2808 38.5003 28.7108L37.6792 28.0787ZM36.3435 29.5983C34.7338 31.2139 32.7862 32.453 30.6405 33.2266L30.9921 34.2013C33.2817 33.3758 35.36 32.0536 37.0777 30.3296L36.3435 29.5983ZM31.14 34.1183C32.9496 32.67 34.4599 30.57 35.5408 28.0549L34.5886 27.6458C33.5607 30.0378 32.1435 31.9878 30.4924 33.3095L31.14 34.1183ZM35.0647 28.3684H38.4918V27.3323H35.0647V28.3684ZM38.0688 27.5512C37.9414 27.7313 37.8151 27.9036 37.6812 28.0697L38.4882 28.7199C38.6414 28.5297 38.7817 28.3378 38.9149 28.1495L38.0688 27.5512ZM38.0846 28.9128H38.0898V27.8767H38.0846V28.9128ZM39.191 26.2485H35.4953V27.2846H39.191V26.2485ZM35.9835 26.9401C36.8674 24.4538 37.3396 21.84 37.3814 19.2016L36.3451 19.1853C36.3051 21.7109 35.8532 24.213 35.007 26.5931L35.9835 26.9401ZM36.8633 19.7115H41.3916V18.6754H36.8633V19.7115ZM40.8738 19.1772C40.7926 21.7589 40.0621 24.2785 38.7498 26.5034L39.6425 27.0297C41.0432 24.6548 41.823 21.9654 41.9096 19.2097L40.8738 19.1772Z" fill="white"/>
</g>
<path d="M28.4854 8.80335C27.69 8.80284 26.8975 8.89789 26.1248 9.08646C25.391 9.26565 24.636 9.44711 23.9746 9.81304C23.3081 10.1757 22.6752 10.5968 22.0832 11.0711C21.4673 11.5661 20.9194 12.1398 20.4533 12.7773C19.7535 13.7336 19.2919 14.8735 18.9775 16.015L21.019 16.0203C21.0408 15.945 21.1902 15.579 21.2099 15.5331C21.2808 15.3674 21.3607 15.204 21.4406 15.0437C21.6026 14.7235 21.7888 14.4159 21.9972 14.1236C22.884 12.873 24.1026 11.8941 25.5162 11.2971C26.431 10.9017 27.4868 10.7467 28.4846 10.7467C29.5303 10.7365 30.5676 10.9333 31.5367 11.3257C32.5057 11.7182 33.3872 12.2985 34.1303 13.0331C34.8733 13.7678 35.4631 14.6421 35.8657 15.6056C36.2683 16.5692 36.4755 17.6029 36.4755 18.6469C36.4755 19.6909 36.2683 20.7246 35.8657 21.6881C35.4631 22.6517 34.8733 23.5261 34.1303 24.2607C33.3872 24.9953 32.5057 25.5755 31.5367 25.968C30.5676 26.3605 29.5303 26.5572 28.4846 26.5471C26.2922 26.5471 24.1104 25.6315 22.645 23.972C22.1402 23.415 21.713 22.7925 21.375 22.1213C21.2598 21.8864 21.1568 21.6464 21.0658 21.4015H23.4203C23.3781 20.7645 23.3517 20.1087 23.3396 19.4394H18.6569C18.6569 19.4394 18.7377 20.4091 18.9216 21.0416C19.0665 21.5439 19.197 22.119 19.4013 22.6122C20.2188 24.5811 21.6978 26.2158 23.5319 27.2805C24.5417 27.8685 25.655 28.1426 26.8073 28.3413L26.8443 28.3473C28.1895 28.5745 29.5673 28.5204 30.8904 28.1885C32.2136 27.8566 33.4534 27.2542 34.5314 26.4193C35.6093 25.5845 36.5021 24.5353 37.153 23.3384C37.8039 22.1414 38.199 20.8225 38.3131 19.4652C38.4272 18.108 38.2578 16.7417 37.8158 15.4532C37.3739 14.1646 36.6688 12.9816 35.7453 11.979C34.8218 10.9764 33.7 10.1762 32.4506 9.62876C31.2014 9.08136 29.852 8.79876 28.4876 8.79883" fill="white"/>
<path d="M22.3065 8.79884C23.1014 8.79837 23.8936 8.89343 24.6658 9.08194C25.3992 9.26115 26.1536 9.4426 26.8147 9.80853C27.4812 10.171 28.1141 10.592 28.7059 11.0667C29.3216 11.5614 29.8692 12.135 30.3348 12.7729C31.0342 13.7291 31.4963 14.8691 31.8106 16.0104L29.7695 16.0157C29.7476 15.9405 29.5991 15.5746 29.5795 15.5287C29.5076 15.363 29.4308 15.1998 29.3488 15.0392C29.1868 14.7189 29.0009 14.4114 28.7926 14.1191C27.9061 12.8686 26.6881 11.8898 25.2755 11.2926C24.3612 10.8973 23.3052 10.7422 22.3088 10.7422C21.2636 10.732 20.2269 10.9288 19.2584 11.3213C18.2899 11.7138 17.4089 12.294 16.6663 13.0286C15.9236 13.7632 15.3341 14.6376 14.9318 15.6012C14.5295 16.5647 14.3224 17.5984 14.3224 18.6424C14.3224 19.6864 14.5295 20.72 14.9318 21.6836C15.3341 22.6471 15.9236 23.5215 16.6663 24.2561C17.4089 24.9907 18.2899 25.5711 19.2584 25.9635C20.2269 26.3559 21.2636 26.5528 22.3088 26.5426C24.4991 26.5426 26.6805 25.627 28.1451 23.9676C28.6494 23.4103 29.0764 22.7878 29.4144 22.1168C29.5289 21.8819 29.632 21.642 29.7235 21.397H27.3679C27.4109 20.76 27.4373 20.1042 27.4494 19.4348H32.1295C32.1295 19.4348 32.0488 20.4054 31.8664 21.0394C31.7224 21.5416 31.592 22.1168 31.3877 22.61C30.5707 24.5789 29.0918 26.2136 27.2594 27.2782C26.2501 27.8663 25.1369 28.1403 23.9851 28.3391L23.9489 28.3451C22.6036 28.5743 21.2255 28.5217 19.9015 28.191C18.5777 27.8602 17.337 27.2583 16.2582 26.4235C15.1794 25.5887 14.2859 24.5392 13.6343 23.3414C12.9829 22.1436 12.5875 20.8237 12.4733 19.4653C12.3592 18.1069 12.5287 16.7397 12.9713 15.4501C13.4138 14.1606 14.1196 12.977 15.0441 11.9742C15.9685 10.9714 17.0914 10.1714 18.3415 9.62478C19.5917 9.07819 20.9418 8.79693 22.3065 8.79884Z" fill="white"/>
<path d="M1.37197 47.3588V47.6654C1.37154 47.7117 1.389 47.7564 1.42058 47.7897C1.43524 47.806 1.45308 47.8191 1.47296 47.828C1.49285 47.837 1.51433 47.8416 1.53604 47.8415H3.40364C3.42552 47.8409 3.44726 47.8452 3.46749 47.8537C3.48771 47.8623 3.50597 47.875 3.52112 47.8912C3.55269 47.9245 3.57016 47.9691 3.56974 48.0154V49.0263C3.57016 49.0726 3.55269 49.1172 3.52112 49.1505C3.50607 49.167 3.48787 49.18 3.46765 49.1889C3.44745 49.1979 3.42565 49.2024 3.40364 49.2023H1.53604C1.51446 49.2018 1.49303 49.206 1.47315 49.2146C1.45325 49.2231 1.43534 49.2359 1.42058 49.252C1.389 49.2853 1.37154 49.33 1.37197 49.3763V49.6559C1.37154 49.7022 1.389 49.7469 1.42058 49.7802C1.43534 49.7963 1.45325 49.8091 1.47315 49.8176C1.49303 49.8262 1.51446 49.8303 1.53604 49.8299H3.67911C3.70112 49.8298 3.72292 49.8343 3.74314 49.8433C3.76336 49.8522 3.78156 49.8652 3.7966 49.8817C3.82817 49.915 3.84564 49.9596 3.84522 50.0059V51.0168C3.84564 51.0631 3.82817 51.1077 3.7966 51.141C3.78145 51.1572 3.76319 51.1699 3.74296 51.1785C3.72274 51.187 3.701 51.1911 3.67911 51.1907H0.17484C0.152958 51.1911 0.131214 51.187 0.11099 51.1785C0.090766 51.1699 0.0725057 51.1572 0.0573583 51.141C0.0257853 51.1077 0.00831238 51.0631 0.00873986 51.0168V46.0125C0.00806861 45.9895 0.012041 45.9666 0.0204046 45.9453C0.0287682 45.9238 0.0413482 45.9044 0.0573583 45.8883C0.0721657 45.8715 0.0903176 45.8582 0.110589 45.8493C0.130859 45.8404 0.152771 45.8359 0.17484 45.8365H3.67911C3.70119 45.8359 3.72309 45.8404 3.74337 45.8493C3.76364 45.8582 3.78179 45.8715 3.7966 45.8883C3.81261 45.9044 3.8252 45.9238 3.83356 45.9453C3.84192 45.9666 3.84588 45.9895 3.84522 46.0125V47.0068C3.84588 47.0298 3.84192 47.0527 3.83356 47.074C3.8252 47.0955 3.81261 47.1148 3.7966 47.131C3.78179 47.1478 3.76364 47.161 3.74337 47.17C3.72309 47.179 3.70119 47.1833 3.67911 47.1828H1.53604C1.51427 47.1824 1.49267 47.1867 1.47273 47.1956C1.45279 47.2047 1.43499 47.2179 1.42058 47.2346C1.40457 47.2508 1.39199 47.2701 1.38363 47.2916C1.37526 47.3129 1.37129 47.3358 1.37197 47.3588Z" fill="white"/>
<path d="M9.86521 49.9913V51.0269C9.86618 51.0729 9.84945 51.1176 9.81862 51.1511C9.80372 51.1678 9.78556 51.181 9.76531 51.19C9.74506 51.1989 9.72318 51.2032 9.70114 51.2029H7.32308C6.9086 51.2162 6.49562 51.1457 6.10772 50.9958C5.78875 50.8649 5.50127 50.665 5.26508 50.4097C5.04094 50.1615 4.87168 49.867 4.7688 49.546C4.65923 49.2051 4.6045 48.8483 4.60676 48.4895C4.6052 48.1259 4.67405 47.7655 4.80932 47.4291C4.93517 47.1064 5.12088 46.8117 5.35623 46.5612C5.58695 46.3149 5.86208 46.1166 6.16646 45.9771C6.48038 45.8338 6.8203 45.7598 7.16408 45.7598C7.50786 45.7598 7.84777 45.8338 8.16168 45.9771C8.46586 46.1169 8.74093 46.3152 8.97192 46.5612C9.45453 47.0816 9.72226 47.7724 9.71937 48.4895C9.71973 48.718 9.67993 48.9446 9.60189 49.1586C9.53327 49.3537 9.43331 49.5357 9.30614 49.6971C9.24537 49.7842 9.26361 49.8276 9.36083 49.8276H9.69505C9.71703 49.8278 9.73876 49.8325 9.75893 49.8414C9.77912 49.8502 9.79734 49.8631 9.81253 49.8794C9.84284 49.9134 9.85947 49.9577 9.85913 50.0037L9.86521 49.9913ZM7.16913 49.7842C7.32959 49.7853 7.48823 49.7493 7.63301 49.6785C7.77541 49.6086 7.90439 49.5132 8.01381 49.3968C8.12578 49.2773 8.21385 49.1366 8.27309 48.9825C8.3344 48.8244 8.36533 48.6556 8.36423 48.4854C8.36496 48.314 8.33403 48.1439 8.27309 47.9842C8.21326 47.8305 8.12525 47.6899 8.01381 47.57C7.90601 47.4517 7.77665 47.3559 7.63301 47.2883C7.48775 47.2191 7.32933 47.1838 7.16913 47.1846C7.00898 47.1842 6.85065 47.2196 6.70527 47.2883C6.56163 47.3559 6.43227 47.4517 6.32446 47.57C6.21432 47.6905 6.12708 47.831 6.06721 47.9842C6.00562 48.1438 5.974 48.3138 5.97404 48.4854C5.97363 48.6557 6.00527 48.8245 6.06721 48.9825C6.12648 49.1361 6.21378 49.2767 6.32446 49.3968C6.43387 49.5132 6.56287 49.6086 6.70527 49.6785C6.85022 49.7487 7.00874 49.7849 7.16913 49.7842Z" fill="white"/>
<path d="M10.708 46.0188C10.7075 45.9724 10.7249 45.9277 10.7566 45.8945C10.7716 45.8781 10.7898 45.865 10.81 45.8561C10.8302 45.8472 10.852 45.8427 10.8741 45.8428H11.9091C11.9308 45.8429 11.9522 45.8476 11.9721 45.8566C11.9919 45.8654 12.0098 45.8783 12.0246 45.8945C12.0561 45.9277 12.0737 45.9724 12.0732 46.0188V48.9827C12.0675 49.1442 12.0973 49.3049 12.1603 49.4529C12.2085 49.5662 12.2812 49.6668 12.373 49.7471C12.4535 49.815 12.5464 49.8657 12.6464 49.8962C12.8174 49.9542 13.0021 49.9542 13.1731 49.8962C13.272 49.8661 13.3638 49.8154 13.4425 49.7471C13.5302 49.6653 13.5995 49.5649 13.6451 49.4529C13.713 49.306 13.7476 49.1453 13.7463 48.9827V46.0188C13.746 45.9728 13.7626 45.9285 13.793 45.8945C13.808 45.8781 13.8262 45.865 13.8464 45.8561C13.8666 45.8472 13.8884 45.8427 13.9104 45.8428H14.9455C14.9673 45.8427 14.9887 45.8472 15.0086 45.8561C15.0285 45.865 15.0463 45.8781 15.0609 45.8945C15.0925 45.9277 15.11 45.9724 15.1095 46.0188V48.9827C15.1141 49.3038 15.062 49.6231 14.9556 49.9252C14.8614 50.1959 14.7109 50.4424 14.5144 50.6477C14.3178 50.8529 14.0799 51.0121 13.8172 51.1141C13.2357 51.3349 12.596 51.3349 12.0145 51.1141C11.7535 51.0112 11.5168 50.853 11.3197 50.6502C11.1233 50.4425 10.971 50.1957 10.872 49.9252C10.7613 49.624 10.7057 49.3046 10.708 48.9827V46.0188Z" fill="white"/>
<path d="M17.516 51.1905H16.4809C16.4586 51.1916 16.4364 51.1878 16.4157 51.1792C16.3951 51.1706 16.3765 51.1575 16.3614 51.1407C16.3316 51.1065 16.3157 51.0622 16.3168 51.0165V46.0184C16.3157 45.9728 16.3316 45.9284 16.3614 45.8942C16.3763 45.8771 16.3948 45.8635 16.4155 45.8546C16.4361 45.8456 16.4585 45.8415 16.4809 45.8424H17.516C17.5377 45.8424 17.5592 45.847 17.5791 45.8559C17.5989 45.8648 17.6168 45.8778 17.6314 45.8942C17.663 45.9275 17.6805 45.9721 17.68 46.0184V51.0165C17.6805 51.0628 17.663 51.1075 17.6314 51.1407C17.6167 51.1568 17.5988 51.1695 17.5789 51.1781C17.559 51.1867 17.5375 51.1909 17.516 51.1905Z" fill="white"/>
<path d="M22.6082 50.0185V51.0148C22.6086 51.0612 22.5912 51.1058 22.5596 51.1391C22.5444 51.1552 22.5262 51.168 22.506 51.1766C22.4857 51.1851 22.464 51.1893 22.4421 51.1888H19.0128C18.9902 51.1898 18.9677 51.186 18.9468 51.1774C18.9257 51.1688 18.9069 51.1558 18.8912 51.1391C18.8623 51.1045 18.8465 51.0603 18.8466 51.0148V46.0127C18.8459 45.9671 18.8619 45.9227 18.8912 45.8884C18.9064 45.8711 18.9253 45.8575 18.9463 45.8485C18.9674 45.8396 18.9901 45.8355 19.0128 45.8366H20.0458C20.0679 45.8361 20.0898 45.8405 20.1101 45.8495C20.1304 45.8584 20.1485 45.8716 20.1633 45.8884C20.1793 45.9046 20.1919 45.924 20.2002 45.9454C20.2086 45.9668 20.2126 45.9896 20.2119 46.0127V49.6706C20.2108 49.7163 20.2268 49.7607 20.2565 49.7948C20.2717 49.8115 20.2903 49.8245 20.3109 49.8331C20.3315 49.8416 20.3537 49.8456 20.376 49.8445H22.4502C22.4722 49.8444 22.494 49.849 22.5142 49.8579C22.5344 49.8668 22.5526 49.8799 22.5677 49.8963C22.5993 49.9296 22.6168 49.9743 22.6163 50.0206" fill="white"/>
<path d="M24.482 51.1905H23.4469C23.4246 51.1916 23.4023 51.1878 23.3817 51.1792C23.3611 51.1706 23.3425 51.1575 23.3274 51.1407C23.2977 51.1065 23.2817 51.0622 23.2828 51.0165V46.0184C23.2817 45.9728 23.2977 45.9284 23.3274 45.8942C23.3423 45.8771 23.3608 45.8635 23.3815 45.8546C23.4021 45.8456 23.4245 45.8415 23.4469 45.8424H24.482C24.5037 45.8424 24.5251 45.847 24.545 45.8559C24.5649 45.8648 24.5827 45.8778 24.5974 45.8942C24.629 45.9275 24.6465 45.9721 24.6461 46.0184V51.0165C24.6465 51.0628 24.629 51.1075 24.5974 51.1407C24.5826 51.1568 24.5647 51.1695 24.5449 51.1781C24.525 51.1867 24.5036 51.1909 24.482 51.1905Z" fill="white"/>
<path d="M29.2522 48.4338C29.3293 48.4807 29.4025 48.5341 29.471 48.5934C29.5481 48.6621 29.6162 48.7407 29.6735 48.8274C29.8121 49.0475 29.8827 49.3052 29.8761 49.5668C29.885 49.8364 29.8373 50.1048 29.7363 50.354C29.6504 50.5492 29.519 50.7198 29.3535 50.851C29.1888 50.9779 28.9995 51.0675 28.7985 51.1141C28.5828 51.1664 28.3618 51.1921 28.1401 51.1907H25.9647C25.943 51.1911 25.9217 51.187 25.9018 51.1784C25.8819 51.1698 25.864 51.1571 25.8491 51.141C25.8176 51.1077 25.8001 51.0631 25.8005 51.0168V46.0125C25.7999 45.9895 25.8039 45.9666 25.8122 45.9453C25.8206 45.9238 25.8332 45.9044 25.8491 45.8883C25.8637 45.8716 25.8814 45.8583 25.9014 45.8493C25.9213 45.8404 25.9429 45.836 25.9647 45.8365H28.045C28.2586 45.8353 28.4715 45.861 28.6789 45.9131C28.872 45.9598 29.0539 46.0457 29.2137 46.1658C29.371 46.2862 29.498 46.4431 29.5844 46.6236C29.6854 46.8384 29.734 47.075 29.7262 47.3132C29.7313 47.5152 29.6777 47.7142 29.5722 47.885C29.4828 48.0306 29.3698 48.1593 29.238 48.2661C29.155 48.3282 29.159 48.3842 29.2522 48.4338ZM27.3299 47.8705H27.97C28.0131 47.8718 28.0559 47.8621 28.0945 47.8422C28.1331 47.8223 28.1662 47.7929 28.1908 47.7566C28.245 47.684 28.2741 47.5952 28.2738 47.5039C28.2739 47.461 28.265 47.4186 28.2475 47.3796C28.23 47.3406 28.2045 47.306 28.1725 47.2781C28.1238 47.223 28.0566 47.1889 27.9841 47.1828H27.3299C27.308 47.1823 27.2863 47.1865 27.266 47.195C27.2458 47.2036 27.2276 47.2164 27.2125 47.2325C27.1809 47.2658 27.1633 47.3105 27.1638 47.3568V47.6944C27.1631 47.7174 27.1671 47.7403 27.1755 47.7617C27.1839 47.7831 27.1964 47.8025 27.2125 47.8187C27.2272 47.8355 27.2454 47.8487 27.2656 47.8576C27.2859 47.8665 27.3078 47.871 27.3299 47.8705ZM28.053 49.0781H27.3299C27.308 49.0776 27.2863 49.0817 27.266 49.0903C27.2458 49.0988 27.2276 49.1115 27.2125 49.1277C27.1809 49.161 27.1633 49.2056 27.1638 49.252V49.6663C27.1633 49.7126 27.1809 49.7573 27.2125 49.7905C27.2276 49.8067 27.2458 49.8194 27.266 49.828C27.2863 49.8366 27.308 49.8408 27.3299 49.8402H28.1017C28.1457 49.839 28.1891 49.8286 28.2291 49.8098C28.2691 49.7909 28.3051 49.7639 28.3346 49.7304C28.3694 49.6982 28.3973 49.6589 28.4165 49.6151C28.4358 49.5713 28.4457 49.5237 28.446 49.4757C28.4414 49.3767 28.4034 49.2823 28.3387 49.2085C28.3049 49.1645 28.2615 49.1294 28.2117 49.1059C28.1621 49.0825 28.1077 49.0715 28.053 49.0739" fill="white"/>
<path d="M32.0537 51.1908H31.0228C31.0009 51.1913 30.9791 51.1871 30.9589 51.1786C30.9386 51.17 30.9204 51.1572 30.9052 51.1411C30.8736 51.1078 30.8562 51.0631 30.8566 51.0168V46.0127C30.856 45.9896 30.8599 45.9667 30.8683 45.9453C30.8766 45.924 30.8893 45.9045 30.9052 45.8883C30.9196 45.8716 30.9375 45.8584 30.9574 45.8495C30.9774 45.8405 30.9989 45.8361 31.0207 45.8365H33.1638C33.4164 45.8339 33.667 45.8825 33.9011 45.9795C34.1181 46.0691 34.3142 46.2047 34.4764 46.3772C34.6377 46.5534 34.7636 46.7603 34.8471 46.9861C34.9941 47.3829 35.023 47.8153 34.9301 48.2288C34.8971 48.3791 34.8474 48.5251 34.7822 48.6639C34.7208 48.7959 34.6447 48.9203 34.5554 49.0346C34.4715 49.1411 34.3716 49.2334 34.2596 49.3081C34.2249 49.3344 34.1994 49.3714 34.1867 49.4136C34.1808 49.4345 34.18 49.4565 34.1841 49.4778C34.1884 49.4991 34.1976 49.519 34.211 49.5358C34.3852 49.7781 34.5696 50.0309 34.762 50.2877C34.9544 50.5446 35.1266 50.7828 35.2785 50.9982C35.292 51.0162 35.301 51.0373 35.3045 51.0597C35.3081 51.0822 35.3061 51.1051 35.2987 51.1266C35.2944 51.1471 35.283 51.1652 35.2666 51.1777C35.2502 51.1903 35.23 51.1964 35.2096 51.1949H33.9295C33.8772 51.1939 33.8259 51.1804 33.7796 51.1556C33.7321 51.1333 33.691 51.0991 33.6601 51.0562C33.5142 50.8491 33.3683 50.6419 33.2246 50.4347C33.0807 50.2276 32.9369 50.0205 32.7951 49.7989C32.7653 49.7565 32.7256 49.7223 32.6797 49.6995C32.6355 49.6747 32.5862 49.6612 32.5358 49.6601H32.3819C32.3604 49.6599 32.339 49.6643 32.3191 49.6728C32.2993 49.6814 32.2814 49.6939 32.2665 49.7099C32.2349 49.7431 32.2174 49.7878 32.2179 49.8341V51.021C32.2183 51.0673 32.2008 51.1119 32.1692 51.1452C32.154 51.1614 32.1358 51.1741 32.1156 51.1827C32.0954 51.1912 32.0736 51.1955 32.0518 51.1949L32.0537 51.1908ZM32.3819 48.3096H33.1091C33.1679 48.3081 33.226 48.297 33.2813 48.2765C33.342 48.2532 33.3978 48.2181 33.4453 48.173C33.5017 48.121 33.5463 48.0568 33.5756 47.9852C33.605 47.9136 33.6186 47.8363 33.6155 47.7587C33.6139 47.7007 33.6065 47.6431 33.5932 47.5867C33.5758 47.5191 33.5477 47.4547 33.5102 47.3962C33.4695 47.3336 33.4155 47.2812 33.3522 47.243C33.2784 47.1996 33.1942 47.1781 33.1091 47.1808H32.3819C32.3602 47.1805 32.3386 47.1849 32.3187 47.1938C32.2987 47.2029 32.281 47.216 32.2665 47.2326C32.2504 47.2488 32.2379 47.2681 32.2295 47.2896C32.2211 47.3109 32.2172 47.3338 32.2179 47.3568V48.1315C32.2172 48.1545 32.2211 48.1774 32.2295 48.1989C32.2379 48.2202 32.2504 48.2396 32.2665 48.2558C32.281 48.2723 32.2987 48.2856 32.3187 48.2945C32.3386 48.3034 32.3602 48.3079 32.3819 48.3076" fill="white"/>
<path d="M37.2433 51.1905H36.2082C36.186 51.1916 36.1638 51.1878 36.1431 51.1792C36.1224 51.1706 36.1039 51.1575 36.0887 51.1407C36.059 51.1065 36.043 51.0622 36.0442 51.0165V46.0184C36.043 45.9728 36.059 45.9284 36.0887 45.8942C36.1037 45.8771 36.1221 45.8635 36.1428 45.8546C36.1635 45.8456 36.1859 45.8415 36.2082 45.8424H37.2433C37.265 45.8426 37.2865 45.8473 37.3063 45.8562C37.3262 45.8651 37.344 45.8781 37.3588 45.8942C37.3904 45.9275 37.4078 45.9721 37.4074 46.0184V51.0165C37.4078 51.0628 37.3904 51.1075 37.3588 51.1407C37.3439 51.1566 37.3259 51.1692 37.306 51.1778C37.2862 51.1863 37.2649 51.1907 37.2433 51.1905Z" fill="white"/>
<path d="M38.5517 46.0188C38.5513 45.9724 38.5687 45.9277 38.6003 45.8945C38.6151 45.8783 38.6331 45.8654 38.6529 45.8566C38.6728 45.8476 38.6941 45.8429 38.7158 45.8428H39.7509C39.7728 45.8427 39.7947 45.8472 39.8149 45.8561C39.8351 45.865 39.8533 45.8781 39.8684 45.8945C39.8987 45.9285 39.9152 45.9728 39.9149 46.0188V48.9827C39.9103 49.1441 39.94 49.3046 40.0021 49.4529C40.0516 49.566 40.1249 49.6664 40.2167 49.7471C40.2972 49.815 40.3902 49.8657 40.4902 49.8962C40.5755 49.9233 40.6642 49.9379 40.7535 49.9397C40.8423 49.9379 40.9302 49.9233 41.0148 49.8962C41.1144 49.8661 41.2068 49.8154 41.2862 49.7471C41.3733 49.6647 41.4423 49.5645 41.4888 49.4529C41.5501 49.3044 41.5792 49.144 41.5739 48.9827V46.0188C41.5735 45.9724 41.5909 45.9277 41.6225 45.8945C41.6375 45.8781 41.6558 45.865 41.676 45.8561C41.6962 45.8472 41.718 45.8427 41.74 45.8428H42.7751C42.7968 45.8429 42.8182 45.8476 42.8381 45.8566C42.8579 45.8654 42.8758 45.8783 42.8906 45.8945C42.9221 45.9277 42.9396 45.9724 42.9392 46.0188V48.9827C42.943 49.3039 42.8902 49.6232 42.7832 49.9252C42.689 50.1959 42.5384 50.4424 42.3419 50.6477C42.1454 50.8529 41.9075 51.0121 41.6448 51.1141C41.064 51.335 40.4248 51.335 39.844 51.1141C39.5829 51.0117 39.346 50.8535 39.1493 50.6502C38.9523 50.4431 38.7997 50.1961 38.7016 49.9252C38.593 49.6236 38.5394 49.3041 38.5436 48.9827L38.5517 46.0188Z" fill="white"/>
<path d="M49.7472 46.0188V51.0168C49.7477 51.0628 49.731 51.1071 49.7007 51.1411C49.6856 51.1571 49.6672 51.17 49.647 51.1785C49.6268 51.1871 49.6051 51.1912 49.5832 51.1907H48.5481C48.5265 51.1912 48.5052 51.187 48.4853 51.1785C48.4654 51.1699 48.4475 51.1571 48.4326 51.1411C48.4011 51.1077 48.3836 51.0632 48.384 51.0168V48.6597C48.3855 48.65 48.385 48.6403 48.3825 48.631C48.3801 48.6215 48.3757 48.6128 48.3698 48.6053C48.364 48.5977 48.3567 48.5914 48.3483 48.5869C48.3399 48.5824 48.3307 48.5796 48.3212 48.5789C48.301 48.5769 48.2807 48.5806 48.2625 48.5897C48.2441 48.5989 48.2288 48.6131 48.218 48.6307L47.0573 50.6129C47.0464 50.6324 47.0303 50.6483 47.011 50.6589C46.9917 50.6695 46.9698 50.6743 46.9478 50.673C46.9249 50.6739 46.9021 50.6689 46.8816 50.6584C46.861 50.6479 46.8434 50.6322 46.8304 50.6129L45.6697 48.6307C45.6611 48.6131 45.6472 48.5985 45.6302 48.5892C45.6131 48.58 45.5938 48.5764 45.5746 48.5789C45.5652 48.5796 45.5559 48.5824 45.5475 48.5869C45.5391 48.5914 45.5318 48.5977 45.526 48.6053C45.5201 48.6128 45.5157 48.6215 45.5133 48.631C45.5108 48.6403 45.5103 48.65 45.5118 48.6597V51.0168C45.5122 51.0632 45.4947 51.1077 45.4632 51.1411C45.4483 51.1569 45.4303 51.1696 45.4104 51.1781C45.3906 51.1867 45.3692 51.1909 45.3477 51.1907H44.3126C44.2907 51.1912 44.269 51.1871 44.2488 51.1785C44.2286 51.17 44.2102 51.1571 44.1951 51.1411C44.1641 51.1075 44.1473 51.0629 44.1486 51.0168V46.0188C44.1473 45.9727 44.1641 45.9279 44.1951 45.8945C44.2101 45.8781 44.2284 45.865 44.2486 45.8561C44.2688 45.8472 44.2905 45.8427 44.3126 45.8428H45.2707C45.3219 45.8437 45.3718 45.8596 45.4146 45.8883C45.4594 45.912 45.4978 45.9469 45.526 45.9898L46.8506 48.0611C46.861 48.0781 46.8752 48.0924 46.8922 48.1025C46.9092 48.1126 46.9283 48.1183 46.9478 48.119C46.9666 48.1189 46.9848 48.1134 47.0006 48.1032C47.0165 48.0929 47.029 48.0783 47.037 48.0611L48.3638 45.9898C48.3941 45.9473 48.4336 45.9125 48.4793 45.8883C48.5223 45.8601 48.572 45.8443 48.6231 45.8428H49.5832C49.6053 45.8427 49.627 45.8472 49.6472 45.8561C49.6674 45.865 49.6857 45.8781 49.7007 45.8945C49.731 45.9285 49.7477 45.9728 49.7472 46.0188Z" fill="white"/>
<path d="M0.00661862 42.9986V37.9758C0.00572439 37.9532 0.00980909 37.9307 0.0185739 37.9099C0.0273387 37.8891 0.0405598 37.8706 0.0572586 37.8557C0.0905426 37.8251 0.134058 37.8088 0.17879 37.8101H49.577C49.6212 37.8087 49.6641 37.8251 49.6965 37.8557C49.7135 37.8702 49.727 37.8887 49.7358 37.9096C49.7446 37.9304 49.7485 37.9531 49.7471 37.9758V42.9986C49.7474 43.0209 49.7431 43.043 49.7344 43.0633C49.7256 43.0837 49.7127 43.1019 49.6965 43.1168C49.6643 43.1479 49.6214 43.165 49.577 43.1643H0.174741C0.129731 43.1651 0.086174 43.148 0.0532034 43.1168C0.037384 43.1016 0.0247381 43.0833 0.0160332 43.063C0.0073284 43.0427 0.00274603 43.0208 0.00256348 42.9986" fill="white"/>
</g>
<defs>
<clipPath id="clip0_6_178">
<rect width="49.75" height="50.77" fill="white" transform="translate(0 0.509766)"/>
</clipPath>
</defs>
</svg>
