<svg width="38" height="38" viewBox="0 0 38 38" fill="none" xmlns="http://www.w3.org/2000/svg">
<g opacity="0.7" clip-path="url(#clip0_6_200)">
<path fill-rule="evenodd" clip-rule="evenodd" d="M10.9734 0.0600586C5.17806 0.0600586 0.47998 4.75813 0.47998 10.5535V26.8766C0.47998 32.672 5.17806 37.3701 10.9734 37.3701H27.2965C33.092 37.3701 37.79 32.672 37.79 26.8766V10.5535C37.79 4.75813 33.092 0.0600586 27.2965 0.0600586H10.9734ZM23.8787 10.6915C23.1785 10.6927 22.4852 10.8341 21.8373 11.1078C21.2509 10.3878 20.5464 9.77943 19.7556 9.31043C20.8062 8.85967 21.9295 8.61617 23.0673 8.5926C23.1288 8.59124 23.1902 8.59055 23.2516 8.59055C26.1826 8.51365 28.9005 10.1625 30.257 12.8404C30.2958 12.9742 30.3089 13.1799 30.241 13.2166C30.12 13.2827 30.1044 13.291 29.7852 12.9657C28.2137 11.3868 26.0702 10.5614 23.8787 10.6915ZM32.3002 18.0689C32.2334 17.4634 31.8311 17.4619 31.7509 17.4683C31.5374 17.4703 26.926 17.4998 26.191 17.4785C25.8227 17.4679 25.7144 17.5442 25.6924 17.5647C25.6859 17.6426 25.6305 18.3373 25.6305 18.8906C25.6305 19.1613 25.6305 19.1664 26.2249 19.2727C26.4057 19.305 26.6307 19.3452 26.9001 19.4072C27.0655 19.4453 27.2125 19.4776 27.3443 19.5066L27.3595 19.51C27.9082 19.5534 28.4277 19.7776 28.8393 20.1485C29.3552 20.6476 28.8563 22.2968 28.7511 22.6222C27.9053 25.5617 25.9647 27.2512 23.4289 27.2512C22.938 27.2512 22.4497 27.1789 21.9793 27.0367C21.2885 27.7871 20.4885 28.4258 19.6073 28.9305C20.686 29.4088 21.8503 29.6562 23.0275 29.6572C28.1766 29.6572 32.3658 24.9466 32.3658 19.1563L32.366 19.1497C32.3663 18.7884 32.3442 18.4274 32.3002 18.0689ZM17.319 18.9339C17.2561 16.3463 18.3072 13.8582 20.2008 12.1115C19.211 11.5589 18.1142 11.2296 16.9859 11.1464C14.8356 13.2214 13.6361 16.1039 13.6738 19.1054C13.6518 21.897 14.682 24.5929 16.5562 26.6472C17.6149 26.4485 18.5678 25.8724 19.2406 25.0241C17.9336 23.2727 17.256 21.1251 17.319 18.9339ZM15.3697 8.74106C15.3087 8.74106 15.2477 8.74172 15.1867 8.74306C9.76039 9.04406 5.58377 13.7068 5.81961 19.2001C5.81961 24.9661 10.0194 29.6572 15.1814 29.6572C20.3213 29.6572 24.5031 24.9697 24.5031 19.2081V19.2009C24.5035 18.8417 24.4816 18.4828 24.4374 18.1264C24.3704 17.521 23.9621 17.5439 23.9163 17.5485C23.6981 17.5511 19.0826 17.5804 18.347 17.559C18.1847 17.535 18.0192 17.5608 17.8716 17.6331C17.8622 17.7476 17.8104 18.4112 17.8104 18.9433C17.8104 19.198 17.8104 19.198 18.3855 19.3005C18.5666 19.3328 18.7921 19.373 19.0621 19.4349C19.2285 19.473 19.3763 19.5054 19.5087 19.5345L19.5218 19.5374C20.0754 19.581 20.5996 19.8068 21.0144 20.1803C21.5281 20.6752 21.0812 22.2131 20.932 22.6728C20.0831 25.6143 18.1326 27.3058 15.5833 27.3058C12.0592 27.3058 9.40155 23.7476 9.40155 19.0289C9.40155 14.4651 12.3596 10.752 15.9957 10.752C18.1894 10.6246 20.3351 11.4363 21.9082 12.9886C22.2131 13.294 22.2247 13.2888 22.3343 13.2299C22.387 13.2019 22.3749 13.0114 22.3394 12.8919C20.9894 10.2759 18.2855 8.66554 15.3697 8.74106Z" fill="white"/>
</g>
<defs>
<clipPath id="clip0_6_200">
<rect width="37.31" height="37.31" fill="white" transform="translate(0.47998 0.0600586)"/>
</clipPath>
</defs>
</svg>
