<svg width="29" height="15" viewBox="0 0 29 15" fill="none" xmlns="http://www.w3.org/2000/svg">
<g opacity="0.7" clip-path="url(#clip0_6_203)">
<path d="M23.3781 9.6398L22.6612 8.2463C21.8268 8.74586 20.9005 9.07389 19.9369 9.21105V9.35398L20.2237 9.31826C20.3268 9.55408 20.364 9.81337 20.3312 10.0686C20.3388 10.2007 20.3267 10.3331 20.2954 10.4616C20.2954 10.4974 20.2237 10.5331 20.152 10.6046C20.0803 10.676 20.0086 10.7118 20.0086 10.7475C20.1241 10.8158 20.2164 10.9169 20.2739 11.0378C20.3314 11.1588 20.3513 11.2941 20.3312 11.4264V11.748C20.3349 11.8197 20.3241 11.8914 20.2995 11.9589C20.2748 12.0265 20.2369 12.0884 20.1878 12.141C20.1162 12.1768 19.9728 12.2839 19.9728 12.3197C20.6539 12.7484 21.1557 13.07 21.4066 13.2487C21.7217 13.0059 22.0211 12.7433 22.3027 12.4626V14.0348C22.3027 14.3206 22.4461 14.4635 22.7688 14.4635C23.0555 14.4635 23.2348 14.3206 23.2348 14.0705C23.2401 14.0395 23.2385 14.0077 23.2301 13.9774C23.2217 13.9471 23.2067 13.919 23.1862 13.8951C23.1656 13.8712 23.1401 13.8521 23.1113 13.8392C23.0825 13.8263 23.0512 13.8199 23.0197 13.8204H22.948C22.9222 13.8111 22.8946 13.8074 22.8672 13.8098C22.8398 13.8121 22.8133 13.8204 22.7894 13.834C22.7655 13.8476 22.7449 13.8662 22.729 13.8885C22.713 13.9109 22.7021 13.9364 22.6971 13.9633C22.6612 14.0705 22.6254 14.142 22.5896 14.142C22.5749 14.1441 22.56 14.1427 22.546 14.1381C22.532 14.1334 22.5193 14.1256 22.5089 14.1152C22.4984 14.1048 22.4906 14.0921 22.4859 14.0781C22.4812 14.0642 22.4799 14.0493 22.482 14.0348V12.3554L22.948 11.9623L22.8763 11.748L22.482 12.1053V10.2472L23.3781 9.6398ZM21.9801 12.3911L21.4783 12.0338V10.7832C21.7373 10.6418 21.9886 10.4867 22.2311 10.3187L22.2669 12.2125L21.9801 12.3911ZM21.5142 10.5688V8.99668L21.6217 8.92519C21.871 9.28614 22.0869 9.66883 22.2669 10.0686L21.5142 10.5688ZM10.5141 12.0338C10.3707 12.0338 10.299 11.8909 10.299 11.605C10.2948 11.4849 10.3069 11.3647 10.3349 11.2477C10.3447 11.1487 10.384 11.0549 10.448 10.9784C10.5119 10.9019 10.5974 10.8464 10.6933 10.819C10.5109 10.7327 10.3695 10.5788 10.299 10.3902V9.85422C10.3084 9.74142 10.3421 9.63192 10.3978 9.53327C10.4534 9.43462 10.5298 9.34907 10.6216 9.2825C10.3739 9.07206 10.1102 8.88091 9.83302 8.71082C9.59164 8.52233 9.32649 8.36618 9.04444 8.2463C8.75793 8.42826 8.44295 8.56111 8.11242 8.63933C7.79091 8.71103 7.48652 8.84455 7.21629 9.0324C7.07971 9.13554 6.97182 9.27169 6.90283 9.42801C6.83384 9.58433 6.806 9.75566 6.82198 9.92566C6.81986 10.0806 6.87041 10.2317 6.96534 10.3545C7.07289 10.5331 7.18044 10.6403 7.3238 10.6403C7.43135 10.6403 7.78981 10.3187 8.39918 9.67557L8.32752 9.60408L8.11242 9.71129C7.78981 9.60408 7.64645 9.46115 7.64645 9.2825C7.65802 9.20131 7.69573 9.12609 7.75391 9.06808C7.8121 9.01011 7.88761 8.97248 7.96906 8.96091L9.04444 9.67557V9.88994L9.08029 10.4974C8.6194 10.7521 8.1017 10.8872 7.57475 10.8904L6.67858 10.7832L6.64273 10.9619L6.85783 11.0333V12.1053L6.60688 12.2125C7.01013 12.5469 7.39317 12.9048 7.75396 13.2844C8.20547 12.9406 8.6364 12.5708 9.04444 12.1768C9.05029 12.3087 9.03825 12.441 9.00859 12.5698L9.90472 13.3202C10.084 13.07 10.2632 12.8199 10.4783 12.5698C10.6888 12.3477 10.8806 12.1087 11.0518 11.8552L10.9084 11.7122C10.765 11.9266 10.6575 12.0338 10.5141 12.0338ZM8.97274 11.8194C8.68598 12.0695 8.50673 12.2125 8.43503 12.2125C8.39918 12.2125 8.29167 12.141 8.14827 11.9623V10.9619L8.97274 10.7118C9.00257 10.9607 9.01452 11.2115 9.00859 11.4621C9.01444 11.5823 9.00236 11.7027 8.97274 11.8194ZM28.4324 11.748L28.3966 11.7122C28.2348 11.8967 28.0546 12.0643 27.8589 12.2125C27.8126 12.2139 27.767 12.2009 27.7285 12.1753C27.6899 12.1496 27.6603 12.1127 27.6438 12.0695C27.608 12.0338 27.608 11.9981 27.608 11.9266V10.9976C27.6796 10.8904 27.7513 10.819 27.823 10.7118C27.7155 10.6403 27.608 10.5331 27.608 10.4259V9.71129L28.0023 9.31826C27.7739 9.19626 27.5579 9.05266 27.357 8.88947C27.142 8.71082 26.9627 8.56789 26.7477 8.38923C26.3753 8.82044 25.9403 9.19381 25.4572 9.49692V9.17533L24.5969 8.42495C24.1667 8.96091 23.8083 9.38971 23.5215 9.71129L23.6649 9.85422C23.88 9.63985 24.0234 9.53264 24.095 9.53264C24.2384 9.53264 24.3101 9.67557 24.3101 9.92566V10.4616C24.2963 10.531 24.2664 10.5962 24.2229 10.652C24.1793 10.7079 24.1233 10.7528 24.0592 10.7832C24.1212 10.8071 24.1763 10.8455 24.2201 10.8953C24.2637 10.9451 24.2947 11.0047 24.3101 11.0691V11.8194C24.3035 11.9462 24.2636 12.069 24.1944 12.1757C24.1252 12.2822 24.0292 12.3689 23.9158 12.4268L24.9195 13.2844C25.4572 12.7842 25.744 12.4983 25.8515 12.4268C25.7509 12.3623 25.6653 12.277 25.6006 12.1768C25.5731 12.084 25.561 11.9875 25.5647 11.8909V11.0333C25.6029 10.9171 25.6785 10.8166 25.7798 10.7475C25.7144 10.7098 25.658 10.6582 25.6147 10.5965C25.5713 10.5348 25.5421 10.4644 25.5289 10.3902V9.71129L26.0666 9.31826L26.4251 9.71129V10.4616C26.3869 10.5779 26.3113 10.6784 26.21 10.7475C26.3113 10.8166 26.3869 10.9171 26.4251 11.0333V12.3911C26.4251 12.3911 26.7477 12.677 27.357 13.2487C27.7677 12.7955 28.1507 12.3182 28.5041 11.8194L28.4324 11.748ZM1.22534 12.677L1.76303 12.3911C1.99839 12.6328 2.27833 12.8269 2.58749 12.9628C2.87737 13.1051 3.19638 13.1785 3.51949 13.1772C3.76069 13.1889 4.0023 13.1648 4.23641 13.1057C4.74604 12.9624 5.18965 12.6465 5.49103 12.2125C5.84038 11.8153 6.04277 11.3109 6.06455 10.7832C6.08811 10.272 5.9364 9.7679 5.63439 9.35398C5.48976 9.13982 5.29093 8.96752 5.05803 8.85459C4.82513 8.74167 4.56641 8.69204 4.3081 8.71082C4.28861 8.73005 4.27601 8.75518 4.27225 8.78226C4.27225 8.81803 4.27225 8.85375 4.23641 8.85375C4.41564 8.85375 4.55902 8.99668 4.66655 9.2825C4.73602 9.42767 4.77272 9.5862 4.77411 9.74701V11.605C4.7786 11.8508 4.72967 12.0945 4.63071 12.3197C4.48733 12.7127 4.34394 12.8556 4.09302 12.9271C3.89482 12.9822 3.68925 13.0063 3.48364 12.9986C3.32698 12.9802 3.1759 12.9294 3.04009 12.8494C2.90429 12.7694 2.78676 12.662 2.69503 12.5341C2.59881 12.4115 2.51478 12.2798 2.44411 12.141L3.87795 11.4621V9.88994C3.90148 9.689 3.98949 9.50102 4.12887 9.35398C4.07639 9.33119 4.02978 9.29682 3.99253 9.25351C3.95528 9.21021 3.92836 9.15902 3.91379 9.10384C3.8772 9.01219 3.85308 8.91604 3.8421 8.81803V6.70987L4.12887 6.49549C4.48733 7.31731 4.7024 7.78179 4.77411 7.889C5.06489 7.73022 5.36407 7.58707 5.67024 7.4602C5.67024 7.42448 5.41933 6.8528 4.91747 5.74512L2.33657 7.31731V7.53169C2.4714 7.42418 2.61532 7.32854 2.76672 7.24583V7.81755C2.74657 8.1388 2.74657 8.46102 2.76672 8.78226C2.76672 9.10384 2.69503 9.2825 2.47995 9.2825C2.19319 9.2825 2.0498 8.92519 2.0498 8.2463C2.0445 7.88391 2.09282 7.52271 2.19319 7.17438C2.26155 6.82449 2.40862 6.49465 2.62334 6.20963C2.62072 6.18217 2.60794 6.15671 2.58749 6.13815H2.5158C2.05518 6.34718 1.68596 6.71521 1.47627 7.17438C1.21978 7.60199 1.04933 8.07532 0.974422 8.56789C0.95658 8.71472 0.920456 8.85875 0.866885 8.99668C0.866885 9.06812 0.723501 9.13957 0.544271 9.24677C0.666138 9.32746 0.76494 9.43827 0.831039 9.56836C0.875347 9.69485 0.899537 9.82748 0.90273 9.96139C0.872097 10.6968 1.04576 11.4263 1.40457 12.0695C1.47627 12.1768 1.51211 12.2482 1.5838 12.3554C0.938576 12.7127 0.580117 12.9986 0.544271 13.2487C0.514125 13.4507 0.565701 13.6563 0.687655 13.8204C0.737515 13.9065 0.811661 13.9761 0.900882 14.0206C0.990101 14.0651 1.09046 14.0824 1.1895 14.0705C1.43988 14.0444 1.67689 13.9449 1.87057 13.7846C2.05965 13.6393 2.2809 13.5413 2.5158 13.4988C2.48732 13.5407 2.47462 13.5914 2.47995 13.6417C2.47606 13.6755 2.47987 13.7098 2.4911 13.7418C2.50234 13.774 2.5207 13.8031 2.54483 13.8272C2.56895 13.8512 2.59821 13.8695 2.63043 13.8807C2.66265 13.8919 2.69698 13.8957 2.73087 13.8918C2.77661 13.8907 2.82109 13.8767 2.85916 13.8514C2.89723 13.8261 2.92732 13.7906 2.94595 13.7489C2.98827 13.7064 3.03657 13.6703 3.08933 13.6417C3.16103 13.6417 3.19687 13.7132 3.19687 13.8204C3.19687 14.0705 3.08933 14.1777 2.83841 14.1777C2.78231 14.1805 2.72644 14.1688 2.6762 14.1438C2.62596 14.1187 2.58305 14.0812 2.55164 14.0348C2.55164 14.2134 2.65918 14.3206 2.87426 14.3206C3.19687 14.3206 3.34026 14.142 3.34026 13.7846C3.44534 13.8624 3.56885 13.9116 3.69872 13.9276C3.77041 13.9276 3.80625 13.8918 3.8421 13.8918C3.87795 13.8561 3.91379 13.8561 3.98548 13.8561C4.02133 13.8561 4.05718 13.8918 4.12887 13.8918C4.17094 13.9202 4.22172 13.9329 4.27225 13.9276C4.37132 13.9208 4.46839 13.8966 4.55902 13.8561C4.66655 13.8204 4.77411 13.8204 4.84577 13.7846C4.93103 13.7789 5.0165 13.7911 5.09672 13.8204C5.17694 13.8497 5.26241 13.8618 5.34763 13.8561C5.45641 13.8619 5.5654 13.8498 5.67024 13.8204V13.7846C5.67024 13.7489 5.67024 13.7132 5.63439 13.7132L5.38348 13.7489C5.27593 13.7489 5.20423 13.7132 5.09672 13.7132C5.06087 13.6417 4.98917 13.6417 4.88162 13.6417C4.79407 13.6488 4.70879 13.6731 4.63071 13.7132C4.53866 13.7449 4.44099 13.757 4.34394 13.7489C4.29341 13.7542 4.24263 13.7416 4.20056 13.7132C4.16471 13.7132 4.12887 13.6775 4.05718 13.6775C4.02133 13.6775 3.94964 13.7132 3.91379 13.7132C3.87172 13.7416 3.82093 13.7542 3.77041 13.7489C3.58939 13.715 3.41806 13.6418 3.26856 13.5345C3.0932 13.4266 2.89838 13.3537 2.69503 13.3202C2.36418 13.3566 2.04572 13.4665 1.76303 13.6417C1.80363 13.5514 1.82789 13.4546 1.83473 13.3559C1.82488 13.2356 1.77432 13.1222 1.69134 13.0343C1.64342 12.9909 1.58635 12.9587 1.52432 12.9401C1.46229 12.9216 1.39687 12.9171 1.33288 12.9271C1.26642 12.9284 1.20271 12.9538 1.15365 12.9986C1.08196 13.07 1.04611 13.1057 1.04611 13.1415C1.04611 13.2129 1.08196 13.2844 1.15365 13.2844C1.1895 13.2844 1.22534 13.2487 1.26119 13.1772C1.29704 13.1057 1.33288 13.07 1.40457 13.07C1.4465 13.0689 1.48804 13.0782 1.52555 13.0968C1.56306 13.1155 1.59537 13.1431 1.61965 13.1772C1.65467 13.2087 1.68243 13.2473 1.701 13.2905C1.71956 13.3337 1.7285 13.3804 1.72719 13.4273C1.73007 13.4861 1.72118 13.5449 1.70103 13.6002C1.68089 13.6555 1.64988 13.7063 1.60984 13.7495C1.5698 13.7928 1.52151 13.8276 1.46781 13.852C1.4141 13.8765 1.35604 13.89 1.29704 13.8918C1.32839 13.8651 1.35406 13.8323 1.37253 13.7955C1.391 13.7587 1.40189 13.7185 1.40457 13.6775C1.40948 13.612 1.39039 13.5469 1.35084 13.4943C1.3113 13.4417 1.25397 13.4052 1.1895 13.3916H1.11781C1.04164 13.399 0.968125 13.4234 0.90273 13.463C0.875003 13.4625 0.847743 13.4558 0.822938 13.4435C0.798133 13.4311 0.776408 13.4134 0.759347 13.3916C0.74144 13.3652 0.731869 13.3341 0.731869 13.3023C0.731869 13.2705 0.74144 13.2393 0.759347 13.2129C0.796442 13.0968 0.856891 12.9893 0.937008 12.8972C1.01712 12.805 1.11523 12.7301 1.22534 12.677ZM2.01396 9.88994C2.01108 9.78434 2.04966 9.6818 2.12149 9.60408C2.15508 9.53844 2.2065 9.48357 2.26987 9.44564C2.33326 9.40776 2.40605 9.38835 2.47995 9.38971C2.69503 9.38971 2.80257 9.60408 2.80257 10.0329V11.8194L2.37242 12.0338C2.06847 11.5287 1.93061 10.9415 1.97811 10.3545C1.97221 10.1988 1.98423 10.0429 2.01396 9.88994ZM14.345 8.99668C14.1432 8.81892 14.0049 8.58068 13.9507 8.31779C13.8073 8.60361 13.6998 8.78226 13.6639 8.88947C13.453 9.16478 13.2126 9.41636 12.947 9.6398L12.9828 9.24677C12.7885 9.16291 12.6162 9.03541 12.4794 8.87426C12.3427 8.71315 12.245 8.52267 12.1942 8.31779C11.4773 9.24678 11.1188 9.71129 11.1188 9.74701C11.1547 9.78273 11.1547 9.8185 11.1905 9.88994L11.5131 9.56836C11.5501 9.56743 11.5866 9.577 11.6184 9.59599C11.6501 9.61497 11.6758 9.64256 11.6924 9.67557C11.7237 9.70235 11.7494 9.73511 11.7679 9.77193C11.7863 9.80875 11.7972 9.84888 11.7999 9.88994V10.4259C11.7938 10.5023 11.7674 10.5758 11.7232 10.6386C11.6791 10.7014 11.619 10.7513 11.549 10.7832C11.6098 10.8225 11.6608 10.8751 11.698 10.937C11.7353 10.999 11.7579 11.0686 11.7641 11.1406V12.0695C11.6753 12.194 11.5663 12.3027 11.4414 12.3911C11.9511 12.5345 12.3947 12.8503 12.696 13.2844L13.8073 12.0695V14.0705C13.8073 14.3564 13.9507 14.4993 14.2733 14.4993C14.56 14.4993 14.7034 14.3564 14.7034 14.1062C14.7087 14.0752 14.7072 14.0435 14.6987 14.0131C14.6903 13.9828 14.6753 13.9547 14.6548 13.9308C14.6343 13.9069 14.6087 13.8879 14.5799 13.875C14.5512 13.862 14.5199 13.8556 14.4883 13.8561H14.4167C14.2733 13.8561 14.2016 13.9276 14.2016 14.1062C14.2016 14.1346 14.1903 14.1619 14.1701 14.182C14.1499 14.2021 14.1225 14.2134 14.094 14.2134C14.0655 14.2134 14.0382 14.2021 14.018 14.182C13.9978 14.1619 13.9865 14.1346 13.9865 14.1062V10.3545C14.345 9.88994 14.6317 9.6398 14.9185 9.60408V9.53264C14.7021 9.38288 14.5088 9.20228 14.345 8.99668ZM13.7714 11.8552L13.3413 12.2839C13.2016 12.2005 13.0696 12.1049 12.947 11.9981V11.1406C12.9456 11.0669 12.9651 10.9943 13.0031 10.9311C13.0411 10.868 13.0962 10.8167 13.162 10.7832C13.0903 10.7651 13.0267 10.7236 12.9812 10.6654C12.9358 10.6071 12.9111 10.5354 12.9111 10.4616V10.0329L13.2337 9.67557C13.433 9.91079 13.6128 10.1617 13.7714 10.4259V11.8552ZM16.9976 10.676C16.9831 10.6843 16.9694 10.6936 16.9564 10.7039C16.9653 10.704 16.9739 10.7014 16.9813 10.6964C16.9887 10.6914 16.9944 10.6843 16.9976 10.676Z" fill="white"/>
<path d="M19.2559 11.9268C19.2201 11.9268 19.1484 11.7839 19.005 11.5338V10.9621C19.007 10.8982 19.0288 10.8364 19.0673 10.7853C19.1057 10.7342 19.1591 10.6961 19.2201 10.6762C19.0767 10.6762 18.9691 10.569 19.005 10.4618V7.46041C19.0095 7.4019 19.0282 7.34537 19.0595 7.29558C19.0906 7.24583 19.1334 7.2043 19.1842 7.17455C19.2559 7.10311 19.3634 7.03162 19.4351 6.96018L18.073 5.88822C17.7944 6.12145 17.531 6.37206 17.2844 6.63859C16.8542 7.03162 16.675 7.35321 16.7108 7.56758C16.7096 7.62733 16.721 7.6867 16.7445 7.7417C16.768 7.79666 16.8029 7.84607 16.8469 7.88662C16.891 7.92718 16.9432 7.9579 17.0001 7.97684C17.0569 7.99574 17.1172 8.00239 17.1768 7.99637C17.2188 7.99748 17.2603 7.98824 17.2978 7.96955C17.3353 7.95086 17.3676 7.92328 17.3919 7.88916C17.4269 7.85772 17.4547 7.81908 17.4732 7.7759C17.4918 7.73272 17.5007 7.68602 17.4994 7.63907C17.4905 7.58529 17.4655 7.5355 17.4278 7.49614C17.3919 7.46041 17.3561 7.42465 17.3202 7.42465C17.2844 7.42465 17.2485 7.46041 17.2127 7.49614C17.2327 7.55716 17.2566 7.61682 17.2844 7.67479C17.2844 7.782 17.2485 7.81772 17.141 7.81772C17.1078 7.81848 17.0748 7.81255 17.044 7.80026C17.0132 7.78797 16.9853 7.76958 16.9618 7.74619C16.9384 7.7228 16.9199 7.69492 16.9076 7.66424C16.8952 7.63352 16.8893 7.60068 16.8901 7.56758C16.9061 7.44139 16.9703 7.32621 17.0693 7.246C17.1619 7.17205 17.246 7.08819 17.3202 6.9959L17.7504 7.35321V9.24695L17.7862 9.28271C17.5191 9.17601 17.2755 9.0182 17.0693 8.81819C16.8258 8.63488 16.598 8.43169 16.3882 8.21075C16.1148 8.60263 15.7603 8.93159 15.3487 9.1755L15.5996 9.56853V10.4261C15.5367 10.5276 15.4647 10.6233 15.3845 10.7119C15.4815 10.7855 15.556 10.8844 15.5996 10.9978V11.7124C15.5992 11.8089 15.5676 11.9028 15.5095 11.98C15.4514 12.0573 15.3699 12.1138 15.277 12.1412C15.7049 12.4197 16.0809 12.7703 16.3882 13.1774C16.7665 12.7083 17.2136 12.2987 17.7145 11.9625C17.7136 12.2391 17.7879 12.5108 17.9296 12.7486C18.1149 12.9572 18.3189 13.1485 18.539 13.3203C18.8387 12.7529 19.2538 12.2539 19.7577 11.8553L19.5785 11.6767C19.471 11.8196 19.3634 11.9268 19.2559 11.9268ZM17.7145 10.4261C17.7074 10.4979 17.6801 10.5661 17.6357 10.6231C17.5913 10.68 17.5316 10.7232 17.4636 10.7477C17.5365 10.7942 17.5973 10.8574 17.6409 10.9319C17.6845 11.0065 17.7097 11.0903 17.7145 11.1764C17.6966 11.3547 17.6966 11.5342 17.7145 11.7124L17.1052 12.1412C16.974 12.0313 16.8647 11.898 16.7825 11.7481V10.9978C16.7839 10.9316 16.8094 10.868 16.8542 10.8191C16.8768 10.772 16.9122 10.7322 16.9564 10.7041C16.9209 10.7048 16.8793 10.6655 16.8542 10.6405C16.8094 10.5916 16.7839 10.5281 16.7825 10.4618V9.60429L17.141 9.28271L17.7145 9.60429V10.4261ZM10.4718 1.06416H9.70187C9.75048 1.09798 9.79018 1.14298 9.81764 1.19535C9.8451 1.24773 9.85951 1.30592 9.8596 1.36501V3.03795C9.87371 3.18445 9.92617 3.32468 10.0117 3.44464C10.0973 3.56459 10.2129 3.66005 10.3471 3.72149C10.5738 3.83144 10.8226 3.88858 11.0748 3.88858C11.3269 3.88858 11.5757 3.83144 11.8025 3.72149C11.9373 3.66025 12.0532 3.56418 12.1382 3.44324C12.2233 3.32229 12.2743 3.18088 12.286 3.03366V1.35858C12.286 1.3005 12.3004 1.24331 12.3278 1.19204C12.3551 1.14077 12.3947 1.09698 12.443 1.06451H11.9985C12.047 1.09693 12.0868 1.14074 12.1143 1.19209C12.1418 1.24343 12.1562 1.30073 12.1563 1.35894V3.04474C12.138 3.22424 12.0496 3.38939 11.9103 3.5046C11.7466 3.61632 11.5574 3.68546 11.36 3.70574C11.1626 3.72602 10.9633 3.6968 10.7801 3.62073C10.6575 3.57437 10.55 3.49534 10.4693 3.39226C10.3887 3.28918 10.338 3.16601 10.3227 3.03616V1.36751C10.3228 1.30842 10.3372 1.25023 10.3647 1.19786C10.3921 1.14548 10.4318 1.10048 10.4804 1.06666L10.4718 1.06416ZM13.9941 2.42516C13.9942 2.76114 14.1105 3.08681 14.3234 3.34724C14.5364 3.60768 14.8329 3.78693 15.163 3.85476C15.2912 3.87771 15.421 3.89133 15.5512 3.8955C15.9313 3.89795 16.302 3.77816 16.6083 3.55391C16.6083 3.55391 16.7893 3.44207 16.7893 3.32809L16.8607 2.78855C16.7197 3.14299 16.4524 3.43308 16.11 3.60322C15.9287 3.69768 15.7278 3.74915 15.5233 3.75364C15.3653 3.75439 15.2102 3.71191 15.0748 3.63082C14.9394 3.54973 14.8289 3.43315 14.7554 3.29378L14.7382 3.26556C14.5943 3.00901 14.5188 2.71998 14.5188 2.42605C14.5188 2.13212 14.5943 1.84309 14.7382 1.58654L14.7533 1.55867C14.8266 1.41785 14.9366 1.29925 15.0717 1.21527C15.2067 1.13129 15.362 1.08503 15.5211 1.08131C15.7254 1.08443 15.9263 1.13457 16.1079 1.22781C16.4143 1.41475 16.653 1.69408 16.7893 2.02533V1.52187C16.7893 1.40753 16.6148 1.28319 16.6148 1.28319C16.3033 1.06373 15.9323 0.94385 15.5508 0.939454C15.4204 0.939305 15.2902 0.952959 15.1626 0.980188C14.8315 1.05159 14.5349 1.23395 14.3222 1.49688C14.1096 1.75981 13.9938 2.08743 13.9941 2.42516ZM5.68822 2.42945C5.68589 2.13534 5.76009 1.84566 5.90361 1.58869L5.91904 1.56082C5.99303 1.42022 6.1035 1.30198 6.23894 1.21839C6.37433 1.13481 6.52976 1.08895 6.68901 1.0856C6.89318 1.08893 7.09383 1.13905 7.27546 1.23209C7.5829 1.42076 7.82181 1.70245 7.95725 2.03605V1.52652C7.95725 1.41218 7.78232 1.28783 7.78232 1.28783C7.4742 1.06625 7.10337 0.948003 6.72342 0.950174C6.59299 0.950611 6.46289 0.964259 6.33521 0.990907C5.99269 1.06459 5.68754 1.25704 5.47405 1.534C5.26056 1.81096 5.15258 2.15445 5.16936 2.50333C5.18614 2.85221 5.32658 3.18383 5.56566 3.43916C5.80475 3.69449 6.12702 3.85696 6.47501 3.89764C6.47501 3.89764 6.63058 3.91301 6.72952 3.91301C7.14405 3.91267 7.54544 3.7681 7.8644 3.50424L7.90529 3.45922C7.94326 3.40912 7.96377 3.34801 7.96369 3.28521V2.85465C7.96377 2.79499 7.9781 2.73621 8.00547 2.68315C8.0328 2.6301 8.07243 2.58429 8.12107 2.5495H7.32957C7.37822 2.58429 7.41784 2.6301 7.44517 2.68315C7.47255 2.73621 7.48687 2.79499 7.48696 2.85465V3.25019C7.48704 3.28778 7.47967 3.32502 7.46517 3.35974C7.45072 3.39446 7.42949 3.42597 7.40271 3.45243C7.30609 3.52951 7.20126 3.59578 7.09015 3.65003C6.9662 3.71651 6.82763 3.75126 6.68685 3.75114C6.54311 3.75083 6.4017 3.71471 6.27546 3.64607C6.14927 3.57743 6.04227 3.47844 5.96421 3.3581C5.7861 3.08059 5.69042 2.75887 5.68822 2.42945ZM18.6013 2.42516C18.6014 2.76109 18.7177 3.08672 18.9306 3.34715C19.1434 3.60757 19.4399 3.78685 19.7699 3.85476C19.8983 3.87773 20.0281 3.89134 20.1585 3.8955C20.5384 3.89788 20.909 3.77809 21.2152 3.55391C21.2152 3.55391 21.3962 3.44207 21.3962 3.32809L21.4676 2.78855C21.3266 3.14299 21.0593 3.43308 20.717 3.60322C20.5356 3.69768 20.3348 3.74915 20.1302 3.75364C19.9719 3.75479 19.8163 3.71249 19.6805 3.63138C19.5447 3.55027 19.4339 3.43347 19.3602 3.29378L19.343 3.26556C19.1991 3.00901 19.1235 2.71998 19.1235 2.42605C19.1235 2.13212 19.1991 1.84309 19.343 1.58654L19.358 1.55867C19.4319 1.41788 19.5424 1.29947 19.6779 1.21587C19.8134 1.13226 19.969 1.08652 20.1284 1.08345C20.3327 1.08657 20.5335 1.13671 20.7152 1.22995C21.0212 1.41633 21.2598 1.69488 21.3966 2.02533V1.52187C21.3966 1.40753 21.222 1.28319 21.222 1.28319C20.9107 1.0638 20.5398 0.943922 20.1585 0.939454C20.028 0.939305 19.8979 0.952959 19.7703 0.980188C19.439 1.05145 19.1422 1.23374 18.9294 1.49669C18.7167 1.75963 18.6011 2.08733 18.6013 2.42516ZM23.7797 1.06416H23.0097C23.0582 1.09751 23.098 1.14212 23.1255 1.19415C23.1529 1.24618 23.1673 1.30407 23.1674 1.36287V3.60322C23.1673 3.66018 23.1537 3.7163 23.1278 3.76708C23.1019 3.81785 23.0644 3.86184 23.0183 3.8955H23.7711C23.725 3.8618 23.6876 3.81779 23.6617 3.76702C23.6359 3.71626 23.6224 3.66014 23.6223 3.60322V1.36287C23.6221 1.30403 23.6365 1.24606 23.664 1.194C23.6914 1.14193 23.731 1.09736 23.7797 1.06416Z" fill="white"/>
</g>
<defs>
<clipPath id="clip0_6_203">
<rect width="27.98" height="13.56" fill="white" transform="translate(0.529999 0.939453)"/>
</clipPath>
</defs>
</svg>
