<svg width="22" height="10" viewBox="0 0 22 10" fill="none" xmlns="http://www.w3.org/2000/svg">
<g opacity="0.7" clip-path="url(#clip0_6_207)">
<path d="M5.27938 1.93334C5.18315 1.77789 5.12391 1.56177 5.12391 1.35702C5.12391 1.15228 5.17573 0.962697 5.26458 0.799659L5.27567 0.780701C5.36452 0.591121 5.56808 0.465998 5.76796 0.465998C5.89751 0.465998 6.03445 0.503914 6.1418 0.564579C6.33797 0.689702 6.48973 0.875491 6.57855 1.09919V0.761741C6.57855 0.68591 6.46753 0.602495 6.46753 0.602495C6.27877 0.458415 6.04186 0.375 5.78648 0.375C5.68284 0.375 5.53849 0.401541 5.53849 0.401541C5.10912 0.496331 4.7908 0.890656 4.7908 1.3646C4.7908 1.86889 5.15723 2.28217 5.62731 2.33525C5.62731 2.33525 5.72354 2.35042 5.79016 2.34662C6.06777 2.34662 6.31947 2.24425 6.51564 2.07742L6.54155 2.04709C6.56376 2.01297 6.57855 1.97505 6.57855 1.92955V1.64897C6.57855 1.56556 6.61929 1.49352 6.67849 1.44802H6.17142C6.23065 1.49352 6.27135 1.56556 6.27135 1.64897L6.27506 1.91059C6.27506 1.96368 6.25656 2.00917 6.22324 2.0433C6.1825 2.09259 6.02336 2.176 6.02336 2.176C5.94563 2.21771 5.85681 2.24425 5.76425 2.24425C5.55699 2.23667 5.37191 2.11534 5.27938 1.93334Z" fill="white"/>
<path d="M10.4428 1.34947C10.4428 1.81962 10.7649 2.20637 11.1905 2.30116C11.1905 2.30116 11.3349 2.3277 11.4385 2.3277C11.6939 2.3277 11.9234 2.24428 12.1159 2.1002C12.1159 2.1002 12.2306 2.02437 12.2306 1.94854L12.275 1.58834C12.1455 1.92579 11.9234 2.0547 11.7938 2.13054C11.6865 2.18741 11.5495 2.22911 11.4163 2.22911C11.2164 2.22911 11.0165 2.11158 10.924 1.922L10.9129 1.90304C10.8241 1.73621 10.7722 1.54663 10.7722 1.34568C10.7722 1.14472 10.8241 0.951351 10.9129 0.788311L10.924 0.769353C11.0129 0.579775 11.2164 0.450861 11.4163 0.450861C11.5458 0.450861 11.6828 0.488777 11.7938 0.549442C11.99 0.674564 12.1418 0.860352 12.2306 1.08406V0.746605C12.2306 0.670774 12.1196 0.587358 12.1196 0.587358C11.9271 0.443278 11.6939 0.359863 11.4385 0.359863C11.3349 0.359863 11.1905 0.386405 11.1905 0.386405C10.7612 0.481194 10.4428 0.87931 10.4428 1.34947Z" fill="white"/>
<path d="M13.3928 1.35349C13.3928 1.82364 13.7148 2.21039 14.1405 2.30517C14.1405 2.30517 14.2848 2.33172 14.3885 2.33172C14.6439 2.33172 14.8733 2.2483 15.0658 2.10422C15.0658 2.10422 15.1806 2.02839 15.1806 1.95256L15.225 1.59236C15.0954 1.92981 14.8733 2.05872 14.7438 2.13455C14.6365 2.19143 14.4958 2.23314 14.3663 2.23314C14.1664 2.23314 13.9665 2.1156 13.874 1.92602L13.8629 1.90706C13.774 1.74023 13.7222 1.55065 13.7222 1.3497C13.7222 1.14495 13.774 0.955371 13.8629 0.792333L13.874 0.773375C13.9628 0.583795 14.1664 0.458674 14.3663 0.458674C14.4958 0.458674 14.6328 0.49659 14.7438 0.557255C14.94 0.682379 15.0917 0.868164 15.1806 1.09187V0.754417C15.1806 0.678586 15.0695 0.595171 15.0695 0.595171C14.8808 0.451091 14.6439 0.367676 14.3885 0.367676C14.2848 0.367676 14.1405 0.394216 14.1405 0.394216C13.7111 0.485214 13.3928 0.879539 13.3928 1.35349Z" fill="white"/>
<path d="M16.7092 0.447266H16.2169C16.2761 0.492765 16.3168 0.564805 16.3168 0.64443V2.13452C16.3168 2.21415 16.2798 2.28618 16.2206 2.32789H16.7018C16.6426 2.28239 16.6056 2.21415 16.6056 2.13452V0.64443C16.6056 0.564805 16.6463 0.492765 16.7092 0.447266Z" fill="white"/>
<path d="M8.1886 0.44715H7.69632C7.75555 0.492649 7.79626 0.56469 7.79626 0.648105V1.75904C7.81479 1.96378 7.93693 2.13441 8.10719 2.21403C8.24783 2.28607 8.4033 2.32778 8.56986 2.32778C8.74012 2.32778 8.89929 2.28986 9.03993 2.21782H9.04364C9.2139 2.1382 9.33604 1.96378 9.35454 1.75904V0.640522C9.35454 0.557106 9.39528 0.488858 9.45448 0.443359H9.16578C9.22502 0.488858 9.26572 0.557106 9.26572 0.640522V1.76283V1.76662C9.25461 1.88795 9.1954 1.99791 9.11026 2.07374L9.10655 2.07753C9.01032 2.15715 8.84006 2.21403 8.67721 2.21403C8.57727 2.21403 8.48103 2.19128 8.39219 2.15715L8.3848 2.15336C8.22563 2.09649 8.1109 1.94104 8.09237 1.76283V1.75904V0.648105C8.08499 0.56469 8.12569 0.492649 8.1886 0.44715Z" fill="white"/>
<path d="M3.15845 4.12927C3.07701 3.94729 2.96597 3.79183 2.82902 3.66293C2.69207 3.534 2.52921 3.43542 2.34784 3.36338C2.16277 3.29513 1.974 3.26102 1.77042 3.26102C1.57055 3.26102 1.37807 3.29513 1.193 3.36338C1.00794 3.43163 0.848775 3.53021 0.711825 3.66293C0.574873 3.79183 0.463831 3.94729 0.382401 4.12927C0.30097 4.31128 0.260254 4.51224 0.260254 4.73593C0.260254 4.95965 0.30097 5.16059 0.382401 5.34259C0.463831 5.52457 0.574873 5.68004 0.711825 5.80897C0.848775 5.93787 1.01164 6.03644 1.193 6.10848C1.37437 6.18052 1.56685 6.21466 1.77042 6.21466C1.9703 6.21466 2.16277 6.18052 2.34784 6.10848C2.52921 6.03644 2.69207 5.93787 2.82902 5.80897C2.96597 5.68004 3.07701 5.52457 3.15845 5.34259C3.23989 5.16059 3.2843 4.95965 3.2843 4.73593C3.2843 4.51224 3.23989 4.31128 3.15845 4.12927ZM2.73649 5.28192C2.68096 5.44117 2.60324 5.57767 2.507 5.69143C2.41076 5.80136 2.29972 5.88858 2.17388 5.94923C2.04803 6.00991 1.91478 6.04023 1.77412 6.04023C1.63347 6.04023 1.50022 6.00991 1.37437 5.94923C1.24853 5.88858 1.13748 5.80136 1.04125 5.69143C0.945011 5.58146 0.867283 5.44496 0.811761 5.28192C0.756239 5.12266 0.726631 4.94069 0.726631 4.73593C0.726631 4.53118 0.756239 4.3492 0.811761 4.18616C0.867283 4.02312 0.945011 3.88662 1.04125 3.77665C1.13748 3.66671 1.24853 3.5795 1.37437 3.51882C1.50022 3.45817 1.63347 3.42785 1.77412 3.42785C1.91478 3.42785 2.04803 3.45817 2.17388 3.51882C2.29972 3.5795 2.41076 3.66671 2.507 3.77665C2.60324 3.88662 2.68096 4.02691 2.73649 4.18616C2.792 4.3492 2.82162 4.53118 2.82162 4.73593C2.82162 4.94069 2.792 5.12266 2.73649 5.28192ZM6.17508 4.95584C6.10476 4.8459 6.0122 4.7549 5.90488 4.67907C5.79753 4.60322 5.67909 4.54257 5.55324 4.48949C5.42739 4.43639 5.30896 4.38331 5.20161 4.33024C5.09428 4.27716 5.00543 4.2127 4.93141 4.14066C4.86108 4.06862 4.82408 3.97762 4.82408 3.86387C4.82408 3.74633 4.86849 3.64396 4.95732 3.56054C5.04617 3.47714 5.16831 3.43163 5.33116 3.43163C5.40148 3.43163 5.47551 3.43921 5.54954 3.45817C5.62357 3.47714 5.69389 3.50746 5.76424 3.54539C5.83085 3.58707 5.89377 3.64018 5.953 3.70461C6.01223 3.77286 6.06035 3.85251 6.10105 3.95108L6.12326 3.93591L6.08255 3.47714C6.00853 3.4051 5.90859 3.34821 5.77903 3.31031C5.65318 3.27238 5.50883 3.25342 5.35337 3.25342C5.23122 3.25342 5.11649 3.26859 5.00914 3.30271C4.90179 3.33685 4.80926 3.38235 4.72782 3.44678C4.64641 3.51125 4.58347 3.59089 4.53906 3.68946C4.49095 3.78804 4.46874 3.90179 4.46874 4.03069C4.46874 4.17477 4.50574 4.29231 4.57609 4.3871C4.64641 4.48189 4.73523 4.56153 4.84258 4.62978C4.94991 4.69801 5.06467 4.75868 5.18681 4.80797C5.30895 4.86105 5.42739 4.91794 5.53104 4.97859C5.63839 5.03926 5.72721 5.10751 5.79753 5.18713C5.86785 5.26677 5.90488 5.36534 5.90488 5.48667C5.90488 5.66868 5.84935 5.80897 5.73833 5.90754C5.62727 6.00233 5.48292 6.05162 5.30525 6.05162C5.23122 6.05162 5.15349 6.04023 5.07205 6.01748C4.99064 5.99473 4.91291 5.95683 4.83517 5.90375C4.76115 5.85444 4.68712 5.78621 4.6168 5.70657C4.54647 5.62317 4.48353 5.52457 4.42803 5.40706L4.39471 5.41842L4.46503 5.94165C4.50945 5.98337 4.56497 6.02129 4.62788 6.05541C4.69082 6.08952 4.76115 6.11608 4.83517 6.13883C4.9092 6.16156 4.98693 6.18052 5.06467 6.19191C5.1424 6.20327 5.22011 6.21087 5.29416 6.21087C5.42739 6.21087 5.55324 6.19191 5.67168 6.15777C5.79012 6.12366 5.89377 6.07058 5.98632 5.99854C6.07885 5.9265 6.14917 5.84308 6.20099 5.7369C6.25281 5.63454 6.27873 5.51321 6.27873 5.38049C6.28243 5.20988 6.24911 5.0658 6.17508 4.95584ZM9.65438 3.7539C9.65067 3.73875 9.63958 3.7084 9.62476 3.6705C9.60997 3.63257 9.59885 3.58707 9.58406 3.54157C9.56926 3.49607 9.55815 3.45439 9.54335 3.41646C9.53224 3.37856 9.52483 3.35581 9.52483 3.34821H7.34473C7.34473 3.35581 7.33732 3.37856 7.3262 3.41646C7.31511 3.45439 7.30029 3.49607 7.2855 3.54157C7.2707 3.58707 7.25588 3.62879 7.24108 3.6705C7.22626 3.71221 7.21888 3.73875 7.21147 3.75772L7.23367 3.78047C7.37432 3.67429 7.53349 3.59846 7.70746 3.55296C7.88513 3.50746 8.05539 3.4885 8.21824 3.4885V4.73593V5.16438V5.48288C8.21824 5.57389 8.21824 5.65729 8.21453 5.72932C8.21453 5.80136 8.21086 5.8734 8.20715 5.94165C8.20344 6.00233 8.18865 6.04783 8.16274 6.07058C8.13683 6.09333 8.10721 6.11227 8.07759 6.12744L8.0813 6.14262C8.09609 6.13883 8.1183 6.13883 8.14792 6.13502C8.18124 6.13123 8.21453 6.13123 8.24785 6.12744C8.28488 6.12744 8.31818 6.12366 8.3515 6.12366H8.42553H8.49955C8.53288 6.12366 8.56617 6.12366 8.59949 6.12744C8.63649 6.12744 8.66982 6.13123 8.69943 6.13502C8.73275 6.13883 8.75496 6.13883 8.76605 6.14262L8.76975 6.12744C8.74384 6.11227 8.71423 6.09333 8.68832 6.07058C8.6624 6.04783 8.6439 6.00612 8.6439 5.94165C8.6402 5.8734 8.6402 5.80515 8.63649 5.72932C8.63649 5.65729 8.63282 5.57389 8.63282 5.48288V5.16438V4.73593V3.4885C8.79937 3.4885 8.96963 3.51125 9.1436 3.55296C9.31756 3.59468 9.47671 3.6705 9.61738 3.77665L9.65438 3.7539ZM12.6266 5.71418C12.5452 5.77483 12.4489 5.8279 12.3379 5.86583C12.2306 5.90375 12.1121 5.93408 11.9863 5.95304C11.8604 5.97198 11.7309 5.98715 11.5939 5.99094C11.457 5.99854 11.32 5.99854 11.1794 5.99473C11.1757 5.9265 11.1757 5.85444 11.172 5.77861C11.172 5.70279 11.1683 5.61557 11.1683 5.52078V5.19091V4.77004V4.76247C11.3718 4.76247 11.5347 4.76626 11.6568 4.77004C11.779 4.77386 11.8752 4.78522 11.9419 4.8004C12.0085 4.81555 12.0529 4.8383 12.0788 4.86865C12.1047 4.89897 12.1232 4.9369 12.1343 4.98237L12.1565 4.9748C12.1528 4.92551 12.1454 4.8838 12.1454 4.84211C12.1417 4.8004 12.1417 4.75111 12.1417 4.69422C12.1417 4.63736 12.1417 4.58807 12.1454 4.55014C12.1491 4.51224 12.1528 4.46674 12.1565 4.41364L12.1343 4.40606C12.1232 4.44778 12.1047 4.48189 12.0788 4.51224C12.0529 4.53878 12.0085 4.56153 11.9419 4.58047C11.8752 4.59564 11.7827 4.61082 11.6568 4.61461C11.5347 4.62218 11.3718 4.62597 11.1683 4.62978V4.26577V3.9928C11.1683 3.90937 11.1683 3.82975 11.172 3.75011C11.172 3.6705 11.1757 3.5795 11.1794 3.47335C11.3052 3.46575 11.4274 3.46196 11.5421 3.46575C11.6568 3.46953 11.7679 3.48092 11.8752 3.49989C11.9826 3.52264 12.0825 3.55296 12.1787 3.59846C12.275 3.64396 12.3638 3.70083 12.4452 3.77665L12.4675 3.75011C12.46 3.73115 12.4489 3.70083 12.4341 3.66293C12.4193 3.625 12.4045 3.58329 12.3897 3.54157C12.3749 3.49989 12.3601 3.45817 12.349 3.42403C12.3379 3.38613 12.3342 3.3596 12.3342 3.34442H10.9536C10.9388 3.34442 10.9128 3.34442 10.8796 3.34063C10.8462 3.34063 10.8129 3.33685 10.7796 3.33685C10.7463 3.33685 10.713 3.33306 10.6797 3.32924C10.6464 3.32546 10.6242 3.32546 10.613 3.32167L10.6094 3.34442C10.6353 3.3596 10.6649 3.37856 10.6908 3.40131C10.7167 3.42403 10.7352 3.46575 10.7352 3.52642C10.7389 3.59468 10.7389 3.66293 10.7426 3.73497C10.7426 3.807 10.7463 3.8904 10.7463 3.98141V4.3037V4.73215V5.1568V5.47528C10.7463 5.57007 10.7463 5.6535 10.7426 5.72554C10.7426 5.79758 10.7389 5.86962 10.7352 5.93787C10.7315 5.99854 10.7167 6.04404 10.6908 6.06677C10.6649 6.08952 10.6353 6.10848 10.6094 6.12366L10.613 6.13883C10.6279 6.13502 10.6501 6.13502 10.6797 6.13123C10.713 6.12745 10.7426 6.12744 10.7796 6.12366C10.8129 6.12366 10.8462 6.11987 10.8796 6.11987H10.9536H12.4748C12.4748 6.10848 12.4823 6.08573 12.5008 6.04404C12.5193 6.00612 12.5378 5.9644 12.5563 5.92269C12.5785 5.881 12.597 5.83929 12.6155 5.80136C12.634 5.76346 12.6451 5.7369 12.6525 5.72554L12.6266 5.71418ZM15.7062 6.07058C15.6469 6.08952 15.5914 6.07816 15.5359 6.02887C15.4804 5.98337 15.4212 5.9189 15.3656 5.8355C15.3064 5.75208 15.2509 5.66107 15.1917 5.55492C15.1325 5.44875 15.0695 5.34638 15.0066 5.2478C14.94 5.14923 14.8733 5.05823 14.803 4.97859C14.7327 4.89897 14.655 4.84211 14.5698 4.81176C14.6809 4.7928 14.7882 4.76247 14.8882 4.72076C14.9881 4.67907 15.0732 4.62597 15.1472 4.56532C15.2213 4.50085 15.2805 4.42503 15.3249 4.33781C15.3693 4.2506 15.3915 4.14823 15.3915 4.03448C15.3915 3.93969 15.3693 3.84869 15.3286 3.76529C15.2879 3.68186 15.2213 3.60604 15.1325 3.54157C15.0436 3.47714 14.9326 3.42785 14.7993 3.38992C14.6661 3.35199 14.5032 3.33306 14.3107 3.33306H14.1812C14.1146 3.33306 14.0405 3.33306 13.9628 3.33685C13.8851 3.33685 13.811 3.34063 13.7444 3.34063C13.6778 3.34063 13.6371 3.34442 13.6186 3.34821L13.6223 3.36717C13.6519 3.37096 13.6815 3.38235 13.7037 3.4051C13.7296 3.42785 13.7407 3.46953 13.7444 3.53021C13.7481 3.59846 13.7481 3.66671 13.7518 3.73875C13.7518 3.81079 13.7555 3.89419 13.7555 3.98519V4.30749V4.73593V5.16438V5.48288C13.7555 5.57389 13.7555 5.65729 13.7518 5.72932C13.7518 5.80136 13.7481 5.8734 13.7444 5.94165C13.7407 6.00233 13.7259 6.04783 13.7 6.07058C13.6741 6.09333 13.6445 6.11227 13.6186 6.12744L13.6223 6.14262C13.6371 6.13883 13.6593 6.13883 13.6926 6.13502C13.7259 6.13123 13.7592 6.13123 13.7962 6.12744C13.8333 6.12744 13.8666 6.12366 13.8999 6.12366H13.9739H14.0479C14.0812 6.12366 14.1146 6.12366 14.1479 6.12744C14.1812 6.12744 14.2145 6.13123 14.2478 6.13502C14.2811 6.13883 14.3033 6.13883 14.3144 6.14262L14.3181 6.12744C14.2885 6.11227 14.2589 6.09333 14.233 6.07058C14.2071 6.04783 14.1923 6.00612 14.1886 5.94165C14.1849 5.881 14.1849 5.82033 14.1812 5.76725C14.1812 5.71036 14.1775 5.64971 14.1775 5.58146V5.35017V5.03169V4.83451H14.2885C14.3589 4.84968 14.4181 4.8914 14.4662 4.96344C14.5143 5.03548 14.555 5.12266 14.5957 5.22127C14.6328 5.31984 14.6735 5.42599 14.7105 5.53596C14.7475 5.64592 14.7956 5.74829 14.8548 5.83929C14.9104 5.93408 14.9807 6.00991 15.0695 6.07058C15.1547 6.13123 15.2657 6.16537 15.3952 6.16537C15.4434 6.16537 15.4952 6.16156 15.5581 6.15398C15.6173 6.14641 15.6691 6.12744 15.7062 6.09712V6.07058ZM14.877 4.35678C14.8326 4.44399 14.7734 4.51224 14.6994 4.56153C14.6253 4.61082 14.5439 4.64493 14.4551 4.66011C14.3626 4.67907 14.2737 4.68286 14.1849 4.67147V3.95866C14.1849 3.7615 14.1886 3.60225 14.1923 3.47335C14.2848 3.47335 14.3736 3.48092 14.4625 3.4961C14.5513 3.51125 14.6328 3.53779 14.7031 3.5795C14.7734 3.62121 14.8326 3.67808 14.877 3.75011C14.9215 3.82215 14.9437 3.91694 14.9437 4.03448C14.9437 4.16341 14.9215 4.27335 14.877 4.35678ZM17.4088 6.12744C17.3792 6.11227 17.3496 6.09333 17.3237 6.07058C17.2978 6.04783 17.283 6.00612 17.2793 5.94165C17.2755 5.8734 17.2755 5.80515 17.2718 5.72932C17.2718 5.65729 17.2681 5.57389 17.2681 5.4791V5.16059V4.73593V4.30749V3.98519C17.2681 3.8904 17.2681 3.81079 17.2718 3.73875C17.2718 3.66671 17.2755 3.59846 17.2793 3.53021C17.283 3.46953 17.2978 3.42403 17.3237 3.40131C17.3496 3.37856 17.3792 3.3596 17.4088 3.34442L17.4051 3.32924C17.3903 3.33306 17.3681 3.33306 17.3385 3.33685C17.3052 3.34063 17.2718 3.34063 17.2385 3.34442C17.2015 3.34442 17.1682 3.34821 17.1386 3.34821C17.1053 3.34821 17.0831 3.35199 17.0646 3.35199H16.9906C16.9572 3.35199 16.9239 3.35199 16.8906 3.34821C16.8573 3.34442 16.824 3.34442 16.7907 3.34063C16.7574 3.34063 16.7351 3.33685 16.7167 3.32924L16.7129 3.34442C16.7389 3.3596 16.7685 3.37856 16.7944 3.40131C16.8203 3.42403 16.8388 3.46953 16.8388 3.53021C16.8425 3.59846 16.8425 3.66671 16.8462 3.73875C16.8462 3.81079 16.8499 3.89419 16.8499 3.98519V4.30749V4.73593V5.16059V5.4791C16.8499 5.57389 16.8499 5.65729 16.8462 5.72932C16.8462 5.80136 16.8425 5.8734 16.8388 5.94165C16.8351 6.00233 16.8203 6.04783 16.7944 6.07058C16.7685 6.09333 16.7389 6.11227 16.7129 6.12744L16.7167 6.14262C16.7314 6.13883 16.7574 6.13883 16.7907 6.13502C16.824 6.13123 16.8536 6.13123 16.8906 6.12744C16.9239 6.12744 16.9572 6.12366 16.9906 6.12366H17.0646C17.0794 6.12366 17.1053 6.12366 17.1386 6.12744C17.1719 6.12744 17.2052 6.13123 17.2385 6.13123C17.2755 6.13123 17.3089 6.13502 17.3385 6.13502C17.3718 6.13502 17.394 6.13883 17.4051 6.14262L17.4088 6.12744ZM21.2397 6.12744C21.2027 6.11227 21.1583 6.08194 21.1102 6.04023C21.0621 5.99473 21.0251 5.94165 20.9955 5.881C20.9621 5.81275 20.9288 5.74829 20.8992 5.68382C20.8659 5.61936 20.8326 5.54732 20.7956 5.46771C20.7586 5.38809 20.7141 5.29331 20.6623 5.18334C20.6105 5.07338 20.5476 4.94069 20.4736 4.77765C20.3995 4.61839 20.3292 4.46293 20.2626 4.31506C20.1959 4.1672 20.133 4.03069 20.0775 3.90179C20.022 3.77286 19.9702 3.65911 19.9257 3.56054C19.8813 3.45817 19.8443 3.37474 19.8184 3.30649H19.7592C19.7333 3.37474 19.6963 3.45817 19.6518 3.56054C19.6074 3.66293 19.5556 3.77665 19.5001 3.90179C19.4446 4.02691 19.3816 4.1672 19.3113 4.31506C19.241 4.46293 19.1707 4.61839 19.0967 4.77765C19.0226 4.9369 18.9597 5.07719 18.9079 5.18713C18.856 5.30088 18.8079 5.39946 18.7672 5.48288C18.7265 5.56628 18.6895 5.64211 18.6562 5.71036C18.6229 5.77483 18.5895 5.84308 18.5562 5.91133C18.497 6.02887 18.4193 6.10091 18.3341 6.12744L18.3378 6.14262C18.3749 6.13883 18.4193 6.13123 18.4674 6.13123C18.5155 6.13123 18.5599 6.12744 18.597 6.12744C18.6377 6.12744 18.6858 6.12745 18.7413 6.13123C18.7968 6.13502 18.8412 6.13883 18.8782 6.14262L18.882 6.12744C18.8672 6.12366 18.8523 6.11608 18.8338 6.10469C18.8153 6.09712 18.7968 6.08573 18.7857 6.07058C18.7709 6.05541 18.7635 6.04023 18.7561 6.02129C18.7524 6.00233 18.7561 5.97579 18.7672 5.94544C18.7857 5.89615 18.8042 5.85065 18.8227 5.80515C18.8412 5.75965 18.8597 5.71036 18.882 5.6535C18.9042 5.60042 18.9227 5.54353 18.9486 5.48288C18.9708 5.42221 19.0004 5.35396 19.03 5.27813H20.2478C20.3181 5.42978 20.3773 5.55492 20.4217 5.6535C20.4661 5.75208 20.5106 5.85065 20.5476 5.94544C20.5587 5.97579 20.5624 6.00233 20.5587 6.02129C20.555 6.04023 20.5439 6.05919 20.5328 6.07058C20.518 6.08573 20.5032 6.09712 20.4846 6.10469C20.4661 6.11227 20.4514 6.11987 20.4365 6.12744L20.4402 6.14262C20.4551 6.13883 20.4846 6.13883 20.5254 6.13502C20.5661 6.13123 20.6068 6.13123 20.6512 6.12744C20.6956 6.12744 20.7363 6.12366 20.7771 6.12366H20.8696H20.9473C20.9806 6.12366 21.014 6.12366 21.051 6.12744C21.088 6.12744 21.125 6.13123 21.1583 6.13502C21.1916 6.13883 21.2175 6.13883 21.236 6.14262L21.2397 6.12744ZM19.0818 5.13026L19.2336 4.78143C19.2928 4.64872 19.3409 4.53878 19.3779 4.45535C19.415 4.37195 19.4446 4.2961 19.4705 4.23545C19.4964 4.17477 19.5223 4.11791 19.5445 4.06483C19.5667 4.01173 19.5926 3.95108 19.6259 3.87904C19.6593 3.95108 19.6852 4.00794 19.7037 4.04966C19.7222 4.09137 19.7407 4.14066 19.7666 4.19752C19.7888 4.25063 19.8221 4.32266 19.8591 4.40985C19.8961 4.49707 19.9517 4.61839 20.022 4.77765L20.1774 5.13405H19.0818V5.13026Z" fill="white"/>
<path d="M6.54889 8.59628C6.46007 8.59628 6.28981 8.83515 6.28981 8.95269C6.28981 8.9868 6.30461 9.00955 6.34534 9.00955C6.44157 9.00955 6.58963 8.74036 6.58963 8.64557C6.58592 8.61146 6.57113 8.59628 6.54889 8.59628ZM6.58222 8.91476C6.5563 8.9868 6.56372 8.99819 6.58222 8.99819C6.60813 8.99819 6.69698 8.90719 6.70807 8.90719C6.71177 8.90719 6.71177 8.91098 6.71177 8.91476C6.70065 8.93751 6.57851 9.07402 6.52301 9.07402C6.47857 9.07402 6.47857 9.02851 6.5156 8.92615L6.54522 8.84651C6.54522 8.84272 6.5341 8.83894 6.5341 8.84272C6.46007 8.9944 6.37863 9.0778 6.29352 9.0778C6.24169 9.0778 6.20099 9.03612 6.20099 8.97544C6.20099 8.83136 6.38975 8.57732 6.54151 8.57732C6.57481 8.57732 6.59704 8.59628 6.60442 8.62661C6.64515 8.52803 6.67845 8.43703 6.73027 8.28538C6.74877 8.23227 6.72657 8.20574 6.64515 8.20574C6.63404 8.20574 6.63774 8.19438 6.64145 8.19438C6.70065 8.1868 6.8265 8.1792 6.83762 8.1792C6.84503 8.1792 6.84871 8.1868 6.84503 8.20195C6.73027 8.49392 6.63404 8.75932 6.58222 8.91476Z" fill="white"/>
<path d="M7.11152 8.58513C7.01529 8.58513 6.87094 8.83915 6.87094 8.94533C6.87094 8.98704 6.88574 9.00598 6.91165 9.00598C6.93385 9.00598 6.96347 8.98704 6.99679 8.9529C7.07452 8.85811 7.15226 8.66854 7.15226 8.63061C7.15594 8.60789 7.14114 8.58513 7.11152 8.58513ZM7.13002 8.91879C7.10782 8.98323 7.11523 8.9984 7.13373 8.9984C7.16705 8.9984 7.22628 8.915 7.23737 8.915C7.24108 8.915 7.24108 8.91879 7.24108 8.92258C7.20405 8.99462 7.12264 9.07423 7.07452 9.07423C7.05232 9.07423 7.0412 9.06287 7.0412 9.04012C7.0412 9.01737 7.04861 8.99083 7.0597 8.9529L7.08191 8.87708C7.08191 8.87329 7.07082 8.8695 7.07082 8.87329C7.0005 8.9984 6.93017 9.07423 6.86724 9.07423C6.82653 9.07423 6.7858 9.04012 6.7858 8.98325C6.7858 8.8164 6.97459 8.57375 7.10782 8.57375C7.13002 8.57375 7.15594 8.58132 7.16705 8.58892C7.17446 8.59271 7.17446 8.5965 7.17817 8.58892C7.19296 8.56996 7.20776 8.54721 7.21517 8.53582C7.22258 8.52446 7.2707 8.53963 7.26699 8.54721L7.13002 8.91879Z" fill="white"/>
<path d="M8.5884 8.26265C8.55137 8.28919 8.54028 8.31194 8.50325 8.6456C8.46255 8.99443 8.46255 9.02476 8.46996 9.03233C8.48475 9.03993 8.51437 9.03993 8.54399 9.04751C8.55137 9.05129 8.55137 9.06268 8.54399 9.06268C8.51437 9.05889 8.46255 9.0589 8.40331 9.0589C8.3404 9.0589 8.28858 9.05889 8.25896 9.06268C8.25155 9.06268 8.24787 9.05129 8.25896 9.04751C8.28858 9.03993 8.3219 9.03993 8.3367 9.03233C8.36261 9.01718 8.3737 8.99064 8.41814 8.64181C8.42922 8.53563 8.44772 8.44463 8.45514 8.37259C8.45514 8.36881 8.44772 8.36881 8.44405 8.36881C8.34781 8.52427 8.16273 8.82382 8.01468 9.07404C8.01097 9.08162 7.99247 9.08162 7.99247 9.07404C7.97397 8.81243 7.94806 8.5167 7.92953 8.37641C7.92953 8.37259 7.92215 8.37259 7.91844 8.37641C7.88883 8.44845 7.85183 8.53563 7.81109 8.6456C7.67415 8.99822 7.67045 9.02476 7.68154 9.03233C7.69265 9.03993 7.71856 9.03993 7.74448 9.04751C7.75189 9.05129 7.74818 9.06268 7.74448 9.06268C7.71486 9.05889 7.68524 9.0589 7.62604 9.0589C7.5631 9.0589 7.53348 9.05889 7.50019 9.06268C7.49278 9.06268 7.49278 9.05129 7.50019 9.04751C7.5298 9.03993 7.5668 9.03993 7.5853 9.03233C7.62233 9.01718 7.63342 8.99443 7.77409 8.6456C7.90733 8.31573 7.90362 8.28919 7.88141 8.26644C7.87033 8.25505 7.837 8.24748 7.7963 8.24369C7.78889 8.24369 7.79259 8.22852 7.7963 8.22852C7.8185 8.2323 7.89253 8.23612 7.93694 8.23612C7.97765 8.23612 7.98135 8.2323 8.00356 8.2323C8.00726 8.2323 8.01097 8.23612 8.01097 8.2399C8.01838 8.36502 8.04429 8.68731 8.06279 8.92239C8.06279 8.92618 8.0702 8.92618 8.0702 8.92239C8.19976 8.71764 8.37372 8.4257 8.47734 8.24369C8.48105 8.2399 8.48105 8.23612 8.48475 8.23612C8.50696 8.2399 8.52178 8.2399 8.56249 8.2399C8.6069 8.2399 8.6476 8.23612 8.67351 8.2323C8.68092 8.2323 8.68463 8.24748 8.67351 8.24748C8.6291 8.24748 8.59581 8.25505 8.5884 8.26265Z" fill="white"/>
<path d="M8.98813 8.58513C8.8919 8.58513 8.74752 8.83915 8.74752 8.94533C8.74752 8.98704 8.76234 9.00598 8.78825 9.00598C8.81046 9.00598 8.84375 8.98704 8.87337 8.9529C8.9511 8.85811 9.02883 8.66854 9.02883 8.63061C9.03254 8.60789 9.01772 8.58513 8.98813 8.58513ZM9.01033 8.91879C8.98813 8.98323 8.99551 8.9984 9.01404 8.9984C9.04733 8.9984 9.10657 8.915 9.11766 8.915C9.12136 8.915 9.12136 8.91879 9.12136 8.92258C9.08436 8.99462 9.00292 9.07423 8.95481 9.07423C8.9326 9.07423 8.92148 9.06287 8.92148 9.04012C8.92148 9.01737 8.9289 8.99083 8.94001 8.9529L8.96222 8.87708C8.96222 8.87329 8.9511 8.8695 8.9511 8.87329C8.88078 8.9984 8.81046 9.07423 8.74752 9.07423C8.70681 9.07423 8.66611 9.04012 8.66611 8.98325C8.66611 8.8164 8.85487 8.57375 8.98813 8.57375C9.01033 8.57375 9.03625 8.58132 9.04733 8.58892C9.05475 8.59271 9.05475 8.5965 9.05845 8.58892C9.07325 8.56996 9.08807 8.54721 9.09545 8.53582C9.10286 8.52446 9.15098 8.53963 9.14727 8.54721L9.01033 8.91879Z" fill="white"/>
<path d="M9.50259 8.66856C9.45447 8.66856 9.45818 8.58895 9.40265 8.58895C9.37303 8.58895 9.33974 8.62685 9.33974 8.65717C9.33974 8.72163 9.45077 8.85056 9.45077 8.93396C9.45077 9.006 9.38415 9.07425 9.29162 9.07425C9.2213 9.07425 9.17316 9.02118 9.17316 8.99085C9.17316 8.9681 9.18798 8.94914 9.21389 8.94914C9.27309 8.94914 9.25089 9.0515 9.33233 9.0515C9.36565 9.0515 9.39156 9.006 9.39156 8.97189C9.39156 8.90364 9.28792 8.80506 9.28792 8.71027C9.28792 8.63442 9.36194 8.55859 9.44706 8.55859C9.49518 8.55859 9.54332 8.59652 9.54332 8.63063C9.54332 8.64581 9.52479 8.66856 9.50259 8.66856Z" fill="white"/>
<path d="M9.86905 8.66856C9.82093 8.66856 9.82463 8.58895 9.76911 8.58895C9.73949 8.58895 9.70617 8.62685 9.70617 8.65717C9.70617 8.72163 9.81722 8.85056 9.81722 8.93396C9.81722 9.006 9.75061 9.07425 9.65805 9.07425C9.58773 9.07425 9.53961 9.02118 9.53961 8.99085C9.53961 8.9681 9.55443 8.94914 9.58035 8.94914C9.63955 8.94914 9.61735 9.0515 9.69878 9.0515C9.73208 9.0515 9.75799 9.006 9.75799 8.97189C9.75799 8.90364 9.65437 8.80506 9.65437 8.71027C9.65437 8.63442 9.7284 8.55859 9.81352 8.55859C9.86163 8.55859 9.90975 8.59652 9.90975 8.63063C9.90975 8.64581 9.89125 8.66856 9.86905 8.66856Z" fill="white"/>
<path d="M10.2022 8.41414C10.1763 8.41414 10.1652 8.39517 10.1652 8.37624C10.1652 8.34589 10.1911 8.3042 10.2281 8.3042C10.2503 8.3042 10.2652 8.32314 10.2652 8.3421C10.2652 8.37242 10.2393 8.41414 10.2022 8.41414ZM10.0135 9.07009C9.96535 9.07009 9.95794 9.02459 9.98385 8.96394L10.1023 8.6985C10.1282 8.64543 10.1245 8.61889 10.0986 8.61889C10.0727 8.61889 10.0172 8.67197 9.98385 8.72125C9.98014 8.72504 9.97644 8.72126 9.97644 8.71747C9.99864 8.64922 10.0949 8.55443 10.1578 8.55443C10.2207 8.55443 10.2207 8.62647 10.1652 8.74022L10.0727 8.9298C10.0468 8.98287 10.0579 8.99426 10.0801 8.99426C10.106 8.99426 10.1911 8.91083 10.2022 8.91083C10.2059 8.91083 10.2096 8.91462 10.2059 8.91844C10.1985 8.94119 10.0764 9.07009 10.0135 9.07009Z" fill="white"/>
<path d="M10.8352 9.07048C10.7944 9.07048 10.7796 9.04015 10.8055 8.96433L10.8944 8.72925C10.9314 8.63446 10.924 8.61928 10.9092 8.61928C10.8574 8.61928 10.7574 8.77854 10.6094 9.0553C10.6057 9.0629 10.5835 9.0629 10.5687 9.0629C10.5501 9.0629 10.5353 9.05909 10.5353 9.0553L10.6686 8.69511C10.6834 8.64961 10.6982 8.6155 10.676 8.6155C10.6205 8.6155 10.5242 8.77472 10.3762 9.0553C10.3725 9.0629 10.354 9.0629 10.3355 9.0629C10.317 9.0629 10.2985 9.05909 10.3021 9.0553L10.4317 8.6989C10.4502 8.64582 10.4539 8.61928 10.4354 8.61928C10.3984 8.61928 10.3577 8.6534 10.3133 8.71786C10.3095 8.72165 10.3058 8.71786 10.3058 8.71407C10.328 8.64582 10.4243 8.55482 10.4835 8.55482C10.502 8.55482 10.5205 8.57757 10.5205 8.60411C10.5205 8.661 10.4835 8.76715 10.4095 8.94155C10.4095 8.94536 10.4206 8.94915 10.4206 8.94536C10.565 8.66478 10.6464 8.54346 10.7167 8.54346C10.7389 8.54346 10.7574 8.56621 10.7574 8.60032C10.7574 8.661 10.7204 8.76336 10.6427 8.93776C10.639 8.94158 10.6538 8.94536 10.6538 8.94155C10.7944 8.661 10.8907 8.55103 10.9536 8.55103C11.0239 8.55103 11.0054 8.63825 10.9684 8.73682L10.8944 8.9264C10.8722 8.97948 10.8833 8.99086 10.9018 8.99086C10.924 8.99086 11.0128 8.90744 11.0239 8.90744C11.0276 8.90744 11.0276 8.91123 11.0276 8.91501C11.0165 8.94155 10.8981 9.07048 10.8352 9.07048Z" fill="white"/>
<path d="M11.3755 8.57353C11.2941 8.57353 11.1868 8.84272 11.1868 8.96786C11.1868 9.02094 11.209 9.05126 11.2497 9.05126C11.3311 9.05126 11.4422 8.78207 11.4422 8.65693C11.4385 8.60386 11.4163 8.57353 11.3755 8.57353ZM11.2423 9.07023C11.1683 9.07023 11.1165 9.01715 11.1165 8.90719C11.1165 8.77068 11.2238 8.55078 11.3829 8.55078C11.457 8.55078 11.5088 8.60386 11.5088 8.71382C11.5088 8.85411 11.4014 9.07023 11.2423 9.07023Z" fill="white"/>
<path d="M12.2972 8.25505C12.2639 8.25505 12.2417 8.26265 12.2269 8.27023C12.2158 8.27402 12.2047 8.29298 12.1233 8.58113C12.1196 8.58874 12.1196 8.59631 12.1269 8.59631C12.1418 8.6001 12.1455 8.6001 12.2121 8.6001C12.3676 8.6001 12.4342 8.4712 12.4342 8.36881C12.4342 8.30816 12.3971 8.25505 12.2972 8.25505ZM12.2047 8.63042C12.1381 8.63042 12.1344 8.63042 12.1196 8.63424C12.1121 8.63802 12.1084 8.64181 12.1047 8.64939C12.0233 8.93754 12.0122 8.99443 12.027 9.00958C12.0418 9.02854 12.064 9.03233 12.1455 9.03233C12.2861 9.03233 12.3935 8.9186 12.3935 8.78968C12.3935 8.70246 12.3194 8.63042 12.2047 8.63042ZM12.3009 8.61149C12.2972 8.61149 12.2935 8.61906 12.2972 8.62285C12.4416 8.6456 12.4934 8.72903 12.4934 8.80864C12.4934 8.93375 12.3527 9.06268 12.1269 9.06268C12.0974 9.06268 12.0566 9.0589 11.9974 9.0589C11.9345 9.0589 11.8419 9.05889 11.8123 9.06268C11.8049 9.06268 11.8012 9.05129 11.8123 9.04751C11.8419 9.03993 11.879 9.03993 11.8938 9.03233C11.9049 9.02854 11.9197 8.99443 12.0159 8.6456C12.1121 8.29298 12.1196 8.26266 12.1084 8.25887C12.0974 8.25127 12.064 8.25127 12.0381 8.24369C12.0307 8.2399 12.0307 8.22852 12.0381 8.22852C12.0677 8.2323 12.1566 8.23612 12.2158 8.23612C12.275 8.23612 12.2935 8.22852 12.3231 8.22852C12.4453 8.22852 12.5267 8.30055 12.5267 8.39156C12.5304 8.48635 12.4453 8.57735 12.3009 8.61149Z" fill="white"/>
<path d="M12.8746 8.57353C12.7932 8.57353 12.6858 8.84272 12.6858 8.96786C12.6858 9.02094 12.708 9.05126 12.7488 9.05126C12.8302 9.05126 12.9412 8.78207 12.9412 8.65693C12.9375 8.60386 12.9153 8.57353 12.8746 8.57353ZM12.7414 9.07023C12.6673 9.07023 12.6155 9.01715 12.6155 8.90719C12.6155 8.77068 12.7229 8.55078 12.882 8.55078C12.956 8.55078 13.0079 8.60386 13.0079 8.71382C13.0079 8.85411 12.9005 9.07023 12.7414 9.07023Z" fill="white"/>
<path d="M13.4187 8.61539C13.378 8.6116 13.378 8.6116 13.3076 8.6116C13.2669 8.71775 13.2188 8.85047 13.1892 8.93768C13.1707 8.98697 13.1855 9.00593 13.2003 9.00593C13.241 9.00593 13.3261 8.89218 13.3372 8.89218C13.341 8.89218 13.3447 8.89597 13.341 8.89976C13.3039 8.95664 13.2188 9.07418 13.1448 9.07418C13.1189 9.07418 13.0708 9.04762 13.104 8.96801C13.1448 8.85804 13.1929 8.72157 13.2299 8.6116C13.1855 8.6116 13.1744 8.61539 13.1411 8.61539C13.13 8.61539 13.13 8.58128 13.1448 8.58128C13.1781 8.58506 13.1966 8.58506 13.241 8.58506C13.2558 8.54335 13.2669 8.50924 13.2743 8.4827C13.278 8.4751 13.2854 8.4751 13.2891 8.4751C13.3076 8.4751 13.3595 8.48267 13.3557 8.49406C13.3483 8.51681 13.3335 8.54714 13.3187 8.58128C13.3854 8.58128 13.3854 8.58128 13.4224 8.57749C13.4335 8.58128 13.4335 8.61539 13.4187 8.61539Z" fill="white"/>
<path d="M13.7962 8.61539C13.7555 8.6116 13.7555 8.6116 13.6852 8.6116C13.6445 8.71775 13.5964 8.85047 13.5667 8.93768C13.5482 8.98697 13.5631 9.00593 13.5779 9.00593C13.6186 9.00593 13.7074 8.89218 13.7148 8.89218C13.7185 8.89218 13.7222 8.89597 13.7185 8.89976C13.6815 8.95664 13.5964 9.07418 13.5223 9.07418C13.4964 9.07418 13.4483 9.04762 13.4816 8.96801C13.5223 8.85804 13.5705 8.72157 13.6075 8.6116C13.5631 8.6116 13.552 8.61539 13.5186 8.61539C13.5075 8.61539 13.5075 8.58128 13.5223 8.58128C13.5557 8.58506 13.5742 8.58506 13.6186 8.58506C13.6334 8.54335 13.6445 8.50924 13.6519 8.4827C13.6556 8.4751 13.663 8.4751 13.6667 8.4751C13.6852 8.4751 13.737 8.48267 13.7333 8.49406C13.7259 8.51681 13.7111 8.54714 13.6963 8.58128C13.7629 8.58128 13.7592 8.58128 13.7999 8.57749C13.811 8.58128 13.811 8.61539 13.7962 8.61539Z" fill="white"/>
<path d="M14.1923 8.92639C14.1701 8.98704 14.1812 8.99464 14.196 8.99464C14.2219 8.99464 14.3034 8.91121 14.3145 8.91121C14.3182 8.91121 14.3182 8.915 14.3182 8.91881C14.3071 8.94154 14.196 9.07047 14.1331 9.07047C14.0813 9.07047 14.0813 9.00979 14.196 8.75196C14.196 8.74817 14.1886 8.74439 14.1849 8.74817C14.0961 8.90364 13.9998 9.07047 13.9036 9.07047C13.8703 9.07047 13.8444 9.05529 13.8444 9.0136C13.8444 8.98704 13.8555 8.94914 13.8814 8.88846L13.9665 8.69888C13.9924 8.64581 13.9924 8.61927 13.9665 8.61927C13.9295 8.61927 13.8851 8.67235 13.8666 8.68374C13.8629 8.68374 13.8592 8.67992 13.8592 8.67613C13.8999 8.62685 13.9554 8.55859 14.0184 8.55859C14.0628 8.55859 14.0776 8.6117 14.0406 8.69888L13.9517 8.90364C13.9184 8.98704 13.9221 9.0136 13.948 9.0136C14.0035 9.0136 14.1294 8.85056 14.2478 8.56998C14.2515 8.5662 14.2589 8.5662 14.2664 8.5662C14.2886 8.5662 14.3219 8.57377 14.3182 8.58513L14.1923 8.92639Z" fill="white"/>
<path d="M14.7846 8.67993C14.7364 8.67993 14.7586 8.61928 14.729 8.61928C14.6957 8.61928 14.6439 8.68753 14.4884 9.0553C14.4847 9.0629 14.4625 9.06669 14.4477 9.06669C14.4292 9.06669 14.4107 9.06669 14.4144 9.0553C14.4847 8.85815 14.5329 8.7065 14.5329 8.66478C14.5329 8.64203 14.5254 8.63064 14.5144 8.63064C14.4773 8.63064 14.4329 8.71786 14.4255 8.72165C14.4218 8.72165 14.4181 8.72165 14.4181 8.71786C14.4477 8.6534 14.5069 8.55103 14.5662 8.55103C14.5995 8.55103 14.6069 8.58896 14.6069 8.62307C14.6069 8.66857 14.5884 8.73682 14.5477 8.86194C14.5439 8.86572 14.5588 8.86951 14.5588 8.86572C14.6476 8.64582 14.7142 8.54346 14.7809 8.54346C14.8179 8.54346 14.8401 8.57378 14.8401 8.60789C14.8364 8.64961 14.8141 8.67993 14.7846 8.67993Z" fill="white"/>
<path d="M15.1399 8.58513C15.0436 8.58513 14.8993 8.83915 14.8993 8.94533C14.8993 8.98704 14.9141 9.00598 14.94 9.00598C14.9622 9.00598 14.9918 8.98704 15.0251 8.9529C15.1028 8.85811 15.1806 8.66854 15.1806 8.63061C15.1843 8.60789 15.1695 8.58513 15.1399 8.58513ZM15.1584 8.91879C15.1362 8.98323 15.1436 8.9984 15.1621 8.9984C15.1954 8.9984 15.2546 8.915 15.2657 8.915C15.2694 8.915 15.2694 8.91879 15.2694 8.92258C15.2324 8.99462 15.151 9.07423 15.1028 9.07423C15.0806 9.07423 15.0696 9.06287 15.0696 9.04012C15.0696 9.01737 15.0733 8.99083 15.0881 8.9529L15.1103 8.87708C15.1103 8.87329 15.0992 8.8695 15.0992 8.87329C15.0288 8.9984 14.9585 9.07423 14.8956 9.07423C14.8549 9.07423 14.8141 9.04012 14.8141 8.98325C14.8141 8.8164 15.0029 8.57375 15.1362 8.57375C15.1584 8.57375 15.1843 8.58132 15.1954 8.58892C15.2028 8.59271 15.2028 8.5965 15.2065 8.58892C15.2213 8.56996 15.2361 8.54721 15.2435 8.53582C15.2509 8.52446 15.299 8.53963 15.2953 8.54721L15.1584 8.91879Z" fill="white"/>
</g>
<defs>
<clipPath id="clip0_6_207">
<rect width="21" height="8.72" fill="white" transform="translate(0.25 0.359863)"/>
</clipPath>
</defs>
</svg>
