<svg width="14" height="17" viewBox="0 0 14 17" fill="none" xmlns="http://www.w3.org/2000/svg">
<path d="M7 10.5784C9.76 10.5784 12 8.33837 12 5.57837C12 2.81837 9.76 0.578369 7 0.578369C4.24 0.578369 2 2.81837 2 5.57837C2 8.33837 4.24 10.5784 7 10.5784ZM7 2.07837C8.93 2.07837 10.5 3.64837 10.5 5.57837C10.5 7.50837 8.93 9.07837 7 9.07837C5.07 9.07837 3.5 7.50837 3.5 5.57837C3.5 3.64837 5.07 2.07837 7 2.07837ZM13.75 14.5784V16.5784H12.25V14.5784C12.25 13.8884 11.69 13.3284 11 13.3284H3C2.31 13.3284 1.75 13.8884 1.75 14.5784V16.5784H0.25V14.5784C0.25 13.0584 1.48 11.8284 3 11.8284H11C12.52 11.8284 13.75 13.0584 13.75 14.5784Z" fill="black"/>
</svg>
