<svg width="1312" height="210" viewBox="0 0 1312 210" fill="none" xmlns="http://www.w3.org/2000/svg">
<path fill-rule="evenodd" clip-rule="evenodd" d="M0 104.66C0 44.9715 47.7192 0.0898438 111.198 0.0898438C137.048 0.0898438 159.565 7.23953 180.162 21.5158C191.548 29.4266 196.801 35.4232 196.801 42.6882V77.5142H196.547C179.028 35.9306 147.277 10.0533 111.198 10.0533C68.2 10.0533 36.5878 49.9763 36.5878 104.799C36.5878 160.013 68.7092 198.921 112.98 198.921C140.357 198.921 164.68 180.17 164.68 160.797V137.088C164.68 126.893 160.584 118.729 153.155 114.393V114.139H208.442V114.393C201.013 118.729 196.917 126.893 196.917 137.088V165.156C196.917 173.067 191.548 181.739 173.752 192.186C154.937 203.28 132.674 209.277 110.273 209.277C47.3489 209.23 0 164.349 0 104.66ZM360.347 189.465C346.392 177.864 338.593 161.927 338.593 142.023V29.4267C338.593 19.2326 334.497 11.0681 327.069 6.73216V6.47846H382.355V6.73216C374.927 11.0681 370.83 19.2326 370.83 29.4267V137.18C370.83 154.524 376.199 168.177 386.058 178.118C397.328 189.465 414.338 196.107 435.443 196.361C474.739 196.753 500.195 173.782 500.195 140.247V29.4267C500.195 19.2326 496.099 11.0681 488.67 6.73216V6.47846H521.44V6.73216C514.011 11.0681 509.915 19.2326 509.915 29.4267V140.386C509.915 181.439 476.521 209.253 426.094 209.253C397.444 209.23 375.436 201.85 360.347 189.465ZM632.522 104.799C632.522 44.9945 680.241 0.0898438 743.72 0.0898438C769.431 0.0898438 792.088 7.23953 812.684 21.5158C824.07 29.4266 829.323 35.4232 829.323 42.6882V77.5142H829.069C811.55 35.9306 779.799 10.0533 743.073 10.0533C700.722 10.0533 669.11 49.9763 669.11 104.799C669.11 159.39 700.722 199.175 744.345 199.175C779.545 199.175 812.8 173.413 834.438 130.699H834.692L829.948 166.909C829.046 173.805 824.07 180.055 812.684 187.943C792.088 202.219 769.431 209.23 743.72 209.23C679.478 208.977 632.522 164.349 632.522 104.799ZM944.872 104.799C944.872 44.9945 992.592 0.0898438 1056.07 0.0898438C1081.78 0.0898438 1104.44 7.23953 1125.03 21.5158C1136.42 29.4266 1141.67 35.4232 1141.67 42.6882V77.5142H1141.42C1123.9 35.9306 1092.15 10.0533 1055.42 10.0533C1013.07 10.0533 981.46 49.9763 981.46 104.799C981.46 159.39 1013.07 199.175 1056.7 199.175C1091.89 199.175 1125.15 173.413 1146.79 130.699H1147.04L1142.3 166.909C1141.4 173.805 1136.42 180.055 1125.01 187.943C1104.41 202.219 1081.76 209.23 1056.05 209.23C991.851 208.977 944.872 164.349 944.872 104.799ZM1268.24 179.917V29.4267C1268.24 19.2326 1264.14 11.0681 1256.71 6.73216V6.47846H1312V6.73216C1304.57 11.0681 1300.48 19.2326 1300.48 29.4267V179.917C1300.48 190.111 1304.57 198.275 1312 202.611V202.865H1256.71V202.611C1264.14 198.275 1268.24 190.111 1268.24 179.917Z" fill="white"/>
</svg>
