<svg width="16" height="17" viewBox="0 0 16 17" fill="none" xmlns="http://www.w3.org/2000/svg">
<path d="M14.0002 3.57837H11.7502V2.32837C11.7502 1.36837 10.9702 0.578369 10.0002 0.578369H5.99023C5.03023 0.578369 4.24023 1.35837 4.24023 2.32837V3.57837H1.99023C0.890234 3.57837 -0.00976562 4.46837 -0.00976562 5.57837V14.5784C-0.00976562 15.6784 0.880234 16.5784 1.99023 16.5784H13.9902C15.0902 16.5784 15.9902 15.6884 15.9902 14.5784V5.57837C15.9902 4.47837 15.1002 3.57837 13.9902 3.57837H14.0002ZM5.75023 2.32837C5.75023 2.18837 5.86023 2.07837 6.0002 2.07837H10.0102C10.1502 2.07837 10.2602 2.18837 10.2602 2.32837V3.57837H5.76023V2.32837H5.75023ZM14.5002 14.5884C14.5002 14.8584 14.2802 15.0884 14.0002 15.0884H2.00023C1.73023 15.0884 1.50023 14.8684 1.50023 14.5884V5.58837C1.50023 5.31837 1.72023 5.08837 2.00023 5.08837H4.25023V6.58837H5.75023V5.08837H10.2502V6.58837H11.7502V5.08837H14.0002C14.2702 5.08837 14.5002 5.30837 14.5002 5.58837V14.5884Z" fill="black"/>
</svg>
