<svg width="16" height="17" viewBox="0 0 16 17" fill="none" xmlns="http://www.w3.org/2000/svg">
<path d="M16 8.57837C16 4.15837 12.42 0.578369 8 0.578369C3.58 0.578369 0 4.15837 0 8.57837C0 12.9984 3.58 16.5784 8 16.5784C9.94 16.5784 11.72 15.8884 13.1 14.7384L14.94 16.5784L16 15.5184L14.16 13.6784C15.31 12.2984 16 10.5184 16 8.57837ZM8 15.0784C4.42 15.0784 1.5 12.1584 1.5 8.57837C1.5 4.99837 4.42 2.07837 8 2.07837C11.58 2.07837 14.5 4.99837 14.5 8.57837C14.5 12.1584 11.58 15.0784 8 15.0784Z" fill="black"/>
</svg>
