<svg width="16" height="16" viewBox="0 0 16 16" fill="none" xmlns="http://www.w3.org/2000/svg">
<path d="M12.9968 10.4844C12.5406 10.0157 11.2437 9.13755 10.3937 9.13755C10.1968 9.13755 10.025 9.1813 9.88433 9.27192C9.4687 9.53755 9.13745 9.7438 8.97808 9.7438C8.89058 9.7438 8.79683 9.66567 8.59058 9.48755L8.5562 9.4563C7.98433 8.95942 7.86245 8.8313 7.64058 8.60005L7.58433 8.54067C7.5437 8.50005 7.50933 8.46255 7.47495 8.42817C7.2812 8.22817 7.14058 8.08442 6.6437 7.52192L6.62183 7.49692C6.38433 7.22817 6.22808 7.05317 6.2187 6.92505C6.20933 6.80005 6.3187 6.59692 6.59683 6.2188C6.93433 5.76255 6.94683 5.20005 6.63745 4.54692C6.39058 4.0313 5.98745 3.53755 5.6312 3.10317L5.59995 3.06567C5.2937 2.69067 4.93745 2.50317 4.54058 2.50317C4.09995 2.50317 3.73433 2.74067 3.54058 2.86567C3.52495 2.87505 3.50933 2.88755 3.4937 2.89692C3.05933 3.17192 2.7437 3.55005 2.62495 3.93442C2.44683 4.51255 2.32808 5.26255 3.1812 6.82192C3.9187 8.17192 4.58745 9.07817 5.64995 10.1688C6.64995 11.1938 7.0937 11.525 8.08745 12.2438C9.1937 13.0438 10.2562 13.5032 11 13.5032C11.6906 13.5032 12.2343 13.5032 13.0093 12.5688C13.8218 11.5875 13.4843 10.9875 12.9968 10.4844Z" fill="black"/>
</svg>
